<mxfile host="app.diagrams.net" modified="2025-03-27T10:09:39.716Z" agent="Mozilla/5.0 (X11; Linux x86_64; rv:136.0) Gecko/20100101 Firefox/136.0" etag="LW4mTmfyQvQ7MVn1k1KE" version="24.2.1" type="device">
  <diagram name="Page-1" id="fLsBlF_BuFHYWlWEYX9F">
    <mxGraphModel dx="3038" dy="2205" grid="1" gridSize="4" guides="1" tooltips="1" connect="1" arrows="1" fold="1" page="1" pageScale="1" pageWidth="827" pageHeight="1169" math="0" shadow="0">
      <root>
        <mxCell id="0" />
        <mxCell id="1" parent="0" />
        <mxCell id="pgKpk6-7AyqQrtEzoh7f-39" value="" style="group" vertex="1" connectable="0" parent="1">
          <mxGeometry x="4" y="341" width="580" height="280.14" as="geometry" />
        </mxCell>
        <mxCell id="pgKpk6-7AyqQrtEzoh7f-25" style="edgeStyle=orthogonalEdgeStyle;rounded=0;orthogonalLoop=1;jettySize=auto;html=1;exitX=0.07;exitY=0.25;exitDx=0;exitDy=0;exitPerimeter=0;elbow=vertical;endArrow=oval;endFill=1;" edge="1" parent="pgKpk6-7AyqQrtEzoh7f-39" source="pgKpk6-7AyqQrtEzoh7f-1">
          <mxGeometry relative="1" as="geometry">
            <mxPoint x="86" y="140" as="targetPoint" />
            <mxPoint x="483" y="115" as="sourcePoint" />
            <Array as="points">
              <mxPoint x="460" y="115" />
              <mxPoint x="460" y="140" />
            </Array>
          </mxGeometry>
        </mxCell>
        <mxCell id="pgKpk6-7AyqQrtEzoh7f-28" style="edgeStyle=orthogonalEdgeStyle;rounded=0;orthogonalLoop=1;jettySize=auto;html=1;exitX=0.93;exitY=0.25;exitDx=0;exitDy=0;exitPerimeter=0;elbow=vertical;endArrow=oval;endFill=1;" edge="1" parent="pgKpk6-7AyqQrtEzoh7f-39" source="pgKpk6-7AyqQrtEzoh7f-1">
          <mxGeometry relative="1" as="geometry">
            <mxPoint x="367" y="130" as="targetPoint" />
            <mxPoint x="570.0000000000002" y="115" as="sourcePoint" />
            <Array as="points">
              <mxPoint x="580" y="115" />
              <mxPoint x="580" y="70" />
              <mxPoint x="423" y="70" />
              <mxPoint x="423" y="130" />
            </Array>
          </mxGeometry>
        </mxCell>
        <mxCell id="pgKpk6-7AyqQrtEzoh7f-1" value="" style="pointerEvents=1;verticalLabelPosition=bottom;shadow=0;dashed=0;align=center;html=1;verticalAlign=top;shape=mxgraph.electrical.miscellaneous.f_m_3_conductor_5;labelBackgroundColor=none;" vertex="1" parent="pgKpk6-7AyqQrtEzoh7f-39">
          <mxGeometry x="480" y="90" width="100" height="100" as="geometry" />
        </mxCell>
        <mxCell id="pgKpk6-7AyqQrtEzoh7f-32" style="edgeStyle=none;rounded=0;orthogonalLoop=1;jettySize=auto;html=1;exitX=0.7;exitY=0;exitDx=0;exitDy=0;exitPerimeter=0;elbow=vertical;endArrow=none;endFill=0;" edge="1" parent="pgKpk6-7AyqQrtEzoh7f-39" source="pgKpk6-7AyqQrtEzoh7f-2">
          <mxGeometry relative="1" as="geometry">
            <mxPoint x="86.52380952380952" as="targetPoint" />
          </mxGeometry>
        </mxCell>
        <mxCell id="pgKpk6-7AyqQrtEzoh7f-2" value="" style="verticalLabelPosition=bottom;shadow=0;dashed=0;align=center;html=1;verticalAlign=top;shape=mxgraph.electrical.mosfets1.n-channel_mosfet_1;labelBackgroundColor=none;strokeColor=#999999;" vertex="1" parent="pgKpk6-7AyqQrtEzoh7f-39">
          <mxGeometry x="20" y="20" width="95" height="100" as="geometry" />
        </mxCell>
        <mxCell id="pgKpk6-7AyqQrtEzoh7f-36" style="edgeStyle=none;rounded=0;orthogonalLoop=1;jettySize=auto;html=1;exitX=0.7;exitY=1;exitDx=0;exitDy=0;exitPerimeter=0;elbow=vertical;endArrow=none;endFill=0;" edge="1" parent="pgKpk6-7AyqQrtEzoh7f-39" source="pgKpk6-7AyqQrtEzoh7f-3">
          <mxGeometry relative="1" as="geometry">
            <mxPoint x="86.52380952380952" y="280" as="targetPoint" />
          </mxGeometry>
        </mxCell>
        <mxCell id="pgKpk6-7AyqQrtEzoh7f-3" value="" style="verticalLabelPosition=bottom;shadow=0;dashed=0;align=center;html=1;verticalAlign=top;shape=mxgraph.electrical.mosfets1.n-channel_mosfet_1;labelBackgroundColor=none;" vertex="1" parent="pgKpk6-7AyqQrtEzoh7f-39">
          <mxGeometry x="20" y="160" width="95" height="100" as="geometry" />
        </mxCell>
        <mxCell id="pgKpk6-7AyqQrtEzoh7f-34" style="edgeStyle=none;rounded=0;orthogonalLoop=1;jettySize=auto;html=1;exitX=0.7;exitY=0;exitDx=0;exitDy=0;exitPerimeter=0;elbow=vertical;endArrow=none;endFill=0;" edge="1" parent="pgKpk6-7AyqQrtEzoh7f-39" source="pgKpk6-7AyqQrtEzoh7f-4">
          <mxGeometry relative="1" as="geometry">
            <mxPoint x="226.5238095238094" as="targetPoint" />
          </mxGeometry>
        </mxCell>
        <mxCell id="pgKpk6-7AyqQrtEzoh7f-4" value="" style="verticalLabelPosition=bottom;shadow=0;dashed=0;align=center;html=1;verticalAlign=top;shape=mxgraph.electrical.mosfets1.n-channel_mosfet_1;labelBackgroundColor=none;strokeColor=#999999;" vertex="1" parent="pgKpk6-7AyqQrtEzoh7f-39">
          <mxGeometry x="160" y="20" width="95" height="100" as="geometry" />
        </mxCell>
        <mxCell id="pgKpk6-7AyqQrtEzoh7f-37" style="edgeStyle=none;rounded=0;orthogonalLoop=1;jettySize=auto;html=1;exitX=0.7;exitY=1;exitDx=0;exitDy=0;exitPerimeter=0;elbow=vertical;endArrow=none;endFill=0;" edge="1" parent="pgKpk6-7AyqQrtEzoh7f-39" source="pgKpk6-7AyqQrtEzoh7f-5">
          <mxGeometry relative="1" as="geometry">
            <mxPoint x="226.5238095238094" y="280" as="targetPoint" />
          </mxGeometry>
        </mxCell>
        <mxCell id="pgKpk6-7AyqQrtEzoh7f-5" value="" style="verticalLabelPosition=bottom;shadow=0;dashed=0;align=center;html=1;verticalAlign=top;shape=mxgraph.electrical.mosfets1.n-channel_mosfet_1;labelBackgroundColor=none;" vertex="1" parent="pgKpk6-7AyqQrtEzoh7f-39">
          <mxGeometry x="160" y="160" width="95" height="100" as="geometry" />
        </mxCell>
        <mxCell id="pgKpk6-7AyqQrtEzoh7f-30" style="edgeStyle=none;rounded=0;orthogonalLoop=1;jettySize=auto;html=1;exitX=0.7;exitY=0;exitDx=0;exitDy=0;exitPerimeter=0;elbow=vertical;strokeWidth=4;endArrow=circle;endFill=0;" edge="1" parent="pgKpk6-7AyqQrtEzoh7f-39">
          <mxGeometry relative="1" as="geometry">
            <mxPoint as="targetPoint" />
            <mxPoint x="366.5" as="sourcePoint" />
          </mxGeometry>
        </mxCell>
        <mxCell id="pgKpk6-7AyqQrtEzoh7f-35" style="edgeStyle=none;rounded=0;orthogonalLoop=1;jettySize=auto;html=1;exitX=0.7;exitY=0;exitDx=0;exitDy=0;exitPerimeter=0;elbow=vertical;endArrow=none;endFill=0;" edge="1" parent="pgKpk6-7AyqQrtEzoh7f-39" source="pgKpk6-7AyqQrtEzoh7f-6">
          <mxGeometry relative="1" as="geometry">
            <mxPoint x="366.5238095238094" as="targetPoint" />
          </mxGeometry>
        </mxCell>
        <mxCell id="pgKpk6-7AyqQrtEzoh7f-6" value="" style="verticalLabelPosition=bottom;shadow=0;dashed=0;align=center;html=1;verticalAlign=top;shape=mxgraph.electrical.mosfets1.n-channel_mosfet_1;labelBackgroundColor=none;" vertex="1" parent="pgKpk6-7AyqQrtEzoh7f-39">
          <mxGeometry x="300" y="20" width="95" height="100" as="geometry" />
        </mxCell>
        <mxCell id="pgKpk6-7AyqQrtEzoh7f-31" style="edgeStyle=none;rounded=0;orthogonalLoop=1;jettySize=auto;html=1;exitX=0.7;exitY=1;exitDx=0;exitDy=0;exitPerimeter=0;elbow=vertical;strokeWidth=4;endArrow=circle;endFill=0;" edge="1" parent="pgKpk6-7AyqQrtEzoh7f-39">
          <mxGeometry relative="1" as="geometry">
            <mxPoint y="279.99714285714276" as="targetPoint" />
            <mxPoint x="366.5" y="280.14" as="sourcePoint" />
          </mxGeometry>
        </mxCell>
        <mxCell id="pgKpk6-7AyqQrtEzoh7f-38" style="edgeStyle=none;rounded=0;orthogonalLoop=1;jettySize=auto;html=1;exitX=0.7;exitY=1;exitDx=0;exitDy=0;exitPerimeter=0;elbow=vertical;endArrow=none;endFill=0;" edge="1" parent="pgKpk6-7AyqQrtEzoh7f-39" source="pgKpk6-7AyqQrtEzoh7f-7">
          <mxGeometry relative="1" as="geometry">
            <mxPoint x="366.5238095238094" y="280" as="targetPoint" />
          </mxGeometry>
        </mxCell>
        <mxCell id="pgKpk6-7AyqQrtEzoh7f-7" value="" style="verticalLabelPosition=bottom;shadow=0;dashed=0;align=center;html=1;verticalAlign=top;shape=mxgraph.electrical.mosfets1.n-channel_mosfet_1;labelBackgroundColor=none;strokeColor=#999999;" vertex="1" parent="pgKpk6-7AyqQrtEzoh7f-39">
          <mxGeometry x="300" y="160" width="95" height="100" as="geometry" />
        </mxCell>
        <mxCell id="pgKpk6-7AyqQrtEzoh7f-17" value="" style="endArrow=none;html=1;rounded=0;entryX=0.7;entryY=1;entryDx=0;entryDy=0;entryPerimeter=0;exitX=0.7;exitY=0;exitDx=0;exitDy=0;exitPerimeter=0;labelBackgroundColor=none;fontColor=default;" edge="1" parent="pgKpk6-7AyqQrtEzoh7f-39" source="pgKpk6-7AyqQrtEzoh7f-5" target="pgKpk6-7AyqQrtEzoh7f-4">
          <mxGeometry width="50" height="50" relative="1" as="geometry">
            <mxPoint x="280" y="190" as="sourcePoint" />
            <mxPoint x="330" y="140" as="targetPoint" />
          </mxGeometry>
        </mxCell>
        <mxCell id="pgKpk6-7AyqQrtEzoh7f-18" value="" style="endArrow=none;html=1;rounded=0;exitX=0.7;exitY=0;exitDx=0;exitDy=0;exitPerimeter=0;labelBackgroundColor=none;fontColor=default;entryX=0.7;entryY=1;entryDx=0;entryDy=0;entryPerimeter=0;" edge="1" parent="pgKpk6-7AyqQrtEzoh7f-39" source="pgKpk6-7AyqQrtEzoh7f-7" target="pgKpk6-7AyqQrtEzoh7f-6">
          <mxGeometry width="50" height="50" relative="1" as="geometry">
            <mxPoint x="280" y="190" as="sourcePoint" />
            <mxPoint x="367" y="130" as="targetPoint" />
          </mxGeometry>
        </mxCell>
        <mxCell id="pgKpk6-7AyqQrtEzoh7f-26" style="edgeStyle=none;rounded=0;orthogonalLoop=1;jettySize=auto;html=1;exitX=0.7;exitY=1;exitDx=0;exitDy=0;exitPerimeter=0;entryX=0.7;entryY=0;entryDx=0;entryDy=0;entryPerimeter=0;elbow=vertical;endArrow=none;endFill=0;" edge="1" parent="pgKpk6-7AyqQrtEzoh7f-39" source="pgKpk6-7AyqQrtEzoh7f-2" target="pgKpk6-7AyqQrtEzoh7f-3">
          <mxGeometry relative="1" as="geometry" />
        </mxCell>
        <mxCell id="pgKpk6-7AyqQrtEzoh7f-27" style="edgeStyle=orthogonalEdgeStyle;rounded=0;orthogonalLoop=1;jettySize=auto;html=1;exitX=0.5;exitY=1;exitDx=0;exitDy=0;exitPerimeter=0;elbow=vertical;endArrow=oval;endFill=1;" edge="1" parent="pgKpk6-7AyqQrtEzoh7f-39" source="pgKpk6-7AyqQrtEzoh7f-1">
          <mxGeometry relative="1" as="geometry">
            <mxPoint x="226" y="150" as="targetPoint" />
            <mxPoint x="503" y="125" as="sourcePoint" />
            <Array as="points">
              <mxPoint x="460" y="190" />
              <mxPoint x="460" y="150" />
            </Array>
          </mxGeometry>
        </mxCell>
        <mxCell id="pgKpk6-7AyqQrtEzoh7f-263" value="&lt;font style=&quot;font-size: 16px;&quot;&gt;SVM1&lt;/font&gt;" style="text;html=1;align=center;verticalAlign=middle;whiteSpace=wrap;rounded=0;" vertex="1" parent="pgKpk6-7AyqQrtEzoh7f-39">
          <mxGeometry x="520" width="60" height="30" as="geometry" />
        </mxCell>
        <mxCell id="pgKpk6-7AyqQrtEzoh7f-40" value="" style="group" vertex="1" connectable="0" parent="1">
          <mxGeometry x="700" width="584" height="280.14" as="geometry" />
        </mxCell>
        <mxCell id="pgKpk6-7AyqQrtEzoh7f-41" style="edgeStyle=orthogonalEdgeStyle;rounded=0;orthogonalLoop=1;jettySize=auto;html=1;exitX=0.07;exitY=0.25;exitDx=0;exitDy=0;exitPerimeter=0;elbow=vertical;endArrow=oval;endFill=1;" edge="1" parent="pgKpk6-7AyqQrtEzoh7f-40" source="pgKpk6-7AyqQrtEzoh7f-43">
          <mxGeometry relative="1" as="geometry">
            <mxPoint x="86" y="140" as="targetPoint" />
            <mxPoint x="483" y="115" as="sourcePoint" />
            <Array as="points">
              <mxPoint x="460" y="115" />
              <mxPoint x="460" y="140" />
            </Array>
          </mxGeometry>
        </mxCell>
        <mxCell id="pgKpk6-7AyqQrtEzoh7f-42" style="edgeStyle=orthogonalEdgeStyle;rounded=0;orthogonalLoop=1;jettySize=auto;html=1;exitX=0.93;exitY=0.25;exitDx=0;exitDy=0;exitPerimeter=0;elbow=vertical;endArrow=oval;endFill=1;" edge="1" parent="pgKpk6-7AyqQrtEzoh7f-40" source="pgKpk6-7AyqQrtEzoh7f-43">
          <mxGeometry relative="1" as="geometry">
            <mxPoint x="367" y="130" as="targetPoint" />
            <mxPoint x="570.0000000000002" y="115" as="sourcePoint" />
            <Array as="points">
              <mxPoint x="580" y="115" />
              <mxPoint x="580" y="70" />
              <mxPoint x="423" y="70" />
              <mxPoint x="423" y="130" />
            </Array>
          </mxGeometry>
        </mxCell>
        <mxCell id="pgKpk6-7AyqQrtEzoh7f-43" value="" style="pointerEvents=1;verticalLabelPosition=bottom;shadow=0;dashed=0;align=center;html=1;verticalAlign=top;shape=mxgraph.electrical.miscellaneous.f_m_3_conductor_5;labelBackgroundColor=none;" vertex="1" parent="pgKpk6-7AyqQrtEzoh7f-40">
          <mxGeometry x="480" y="90" width="100" height="100" as="geometry" />
        </mxCell>
        <mxCell id="pgKpk6-7AyqQrtEzoh7f-44" style="edgeStyle=none;rounded=0;orthogonalLoop=1;jettySize=auto;html=1;exitX=0.7;exitY=0;exitDx=0;exitDy=0;exitPerimeter=0;elbow=vertical;endArrow=none;endFill=0;" edge="1" parent="pgKpk6-7AyqQrtEzoh7f-40" source="pgKpk6-7AyqQrtEzoh7f-45">
          <mxGeometry relative="1" as="geometry">
            <mxPoint x="86.52380952380952" as="targetPoint" />
          </mxGeometry>
        </mxCell>
        <mxCell id="pgKpk6-7AyqQrtEzoh7f-45" value="" style="verticalLabelPosition=bottom;shadow=0;dashed=0;align=center;html=1;verticalAlign=top;shape=mxgraph.electrical.mosfets1.n-channel_mosfet_1;labelBackgroundColor=none;" vertex="1" parent="pgKpk6-7AyqQrtEzoh7f-40">
          <mxGeometry x="20" y="20" width="95" height="100" as="geometry" />
        </mxCell>
        <mxCell id="pgKpk6-7AyqQrtEzoh7f-46" style="edgeStyle=none;rounded=0;orthogonalLoop=1;jettySize=auto;html=1;exitX=0.7;exitY=1;exitDx=0;exitDy=0;exitPerimeter=0;elbow=vertical;endArrow=none;endFill=0;" edge="1" parent="pgKpk6-7AyqQrtEzoh7f-40" source="pgKpk6-7AyqQrtEzoh7f-47">
          <mxGeometry relative="1" as="geometry">
            <mxPoint x="86.52380952380952" y="280" as="targetPoint" />
          </mxGeometry>
        </mxCell>
        <mxCell id="pgKpk6-7AyqQrtEzoh7f-47" value="" style="verticalLabelPosition=bottom;shadow=0;dashed=0;align=center;html=1;verticalAlign=top;shape=mxgraph.electrical.mosfets1.n-channel_mosfet_1;labelBackgroundColor=none;strokeColor=#999999;" vertex="1" parent="pgKpk6-7AyqQrtEzoh7f-40">
          <mxGeometry x="20" y="160" width="95" height="100" as="geometry" />
        </mxCell>
        <mxCell id="pgKpk6-7AyqQrtEzoh7f-48" style="edgeStyle=none;rounded=0;orthogonalLoop=1;jettySize=auto;html=1;exitX=0.7;exitY=0;exitDx=0;exitDy=0;exitPerimeter=0;elbow=vertical;endArrow=none;endFill=0;" edge="1" parent="pgKpk6-7AyqQrtEzoh7f-40" source="pgKpk6-7AyqQrtEzoh7f-49">
          <mxGeometry relative="1" as="geometry">
            <mxPoint x="226.5238095238094" as="targetPoint" />
          </mxGeometry>
        </mxCell>
        <mxCell id="pgKpk6-7AyqQrtEzoh7f-49" value="" style="verticalLabelPosition=bottom;shadow=0;dashed=0;align=center;html=1;verticalAlign=top;shape=mxgraph.electrical.mosfets1.n-channel_mosfet_1;labelBackgroundColor=none;strokeColor=#999999;" vertex="1" parent="pgKpk6-7AyqQrtEzoh7f-40">
          <mxGeometry x="160" y="20" width="95" height="100" as="geometry" />
        </mxCell>
        <mxCell id="pgKpk6-7AyqQrtEzoh7f-50" style="edgeStyle=none;rounded=0;orthogonalLoop=1;jettySize=auto;html=1;exitX=0.7;exitY=1;exitDx=0;exitDy=0;exitPerimeter=0;elbow=vertical;endArrow=none;endFill=0;" edge="1" parent="pgKpk6-7AyqQrtEzoh7f-40" source="pgKpk6-7AyqQrtEzoh7f-51">
          <mxGeometry relative="1" as="geometry">
            <mxPoint x="226.5238095238094" y="280" as="targetPoint" />
          </mxGeometry>
        </mxCell>
        <mxCell id="pgKpk6-7AyqQrtEzoh7f-51" value="" style="verticalLabelPosition=bottom;shadow=0;dashed=0;align=center;html=1;verticalAlign=top;shape=mxgraph.electrical.mosfets1.n-channel_mosfet_1;labelBackgroundColor=none;" vertex="1" parent="pgKpk6-7AyqQrtEzoh7f-40">
          <mxGeometry x="160" y="160" width="95" height="100" as="geometry" />
        </mxCell>
        <mxCell id="pgKpk6-7AyqQrtEzoh7f-52" style="edgeStyle=none;rounded=0;orthogonalLoop=1;jettySize=auto;html=1;exitX=0.7;exitY=0;exitDx=0;exitDy=0;exitPerimeter=0;elbow=vertical;strokeWidth=4;endArrow=circle;endFill=0;" edge="1" parent="pgKpk6-7AyqQrtEzoh7f-40">
          <mxGeometry relative="1" as="geometry">
            <mxPoint as="targetPoint" />
            <mxPoint x="366.5" as="sourcePoint" />
          </mxGeometry>
        </mxCell>
        <mxCell id="pgKpk6-7AyqQrtEzoh7f-53" style="edgeStyle=none;rounded=0;orthogonalLoop=1;jettySize=auto;html=1;exitX=0.7;exitY=0;exitDx=0;exitDy=0;exitPerimeter=0;elbow=vertical;endArrow=none;endFill=0;" edge="1" parent="pgKpk6-7AyqQrtEzoh7f-40" source="pgKpk6-7AyqQrtEzoh7f-54">
          <mxGeometry relative="1" as="geometry">
            <mxPoint x="366.5238095238094" as="targetPoint" />
          </mxGeometry>
        </mxCell>
        <mxCell id="pgKpk6-7AyqQrtEzoh7f-54" value="" style="verticalLabelPosition=bottom;shadow=0;dashed=0;align=center;html=1;verticalAlign=top;shape=mxgraph.electrical.mosfets1.n-channel_mosfet_1;labelBackgroundColor=none;strokeColor=#999999;" vertex="1" parent="pgKpk6-7AyqQrtEzoh7f-40">
          <mxGeometry x="300" y="20" width="95" height="100" as="geometry" />
        </mxCell>
        <mxCell id="pgKpk6-7AyqQrtEzoh7f-55" style="edgeStyle=none;rounded=0;orthogonalLoop=1;jettySize=auto;html=1;exitX=0.7;exitY=1;exitDx=0;exitDy=0;exitPerimeter=0;elbow=vertical;strokeWidth=4;endArrow=circle;endFill=0;" edge="1" parent="pgKpk6-7AyqQrtEzoh7f-40">
          <mxGeometry relative="1" as="geometry">
            <mxPoint y="279.99714285714276" as="targetPoint" />
            <mxPoint x="366.5" y="280.14" as="sourcePoint" />
          </mxGeometry>
        </mxCell>
        <mxCell id="pgKpk6-7AyqQrtEzoh7f-56" style="edgeStyle=none;rounded=0;orthogonalLoop=1;jettySize=auto;html=1;exitX=0.7;exitY=1;exitDx=0;exitDy=0;exitPerimeter=0;elbow=vertical;endArrow=none;endFill=0;" edge="1" parent="pgKpk6-7AyqQrtEzoh7f-40" source="pgKpk6-7AyqQrtEzoh7f-57">
          <mxGeometry relative="1" as="geometry">
            <mxPoint x="366.5238095238094" y="280" as="targetPoint" />
          </mxGeometry>
        </mxCell>
        <mxCell id="pgKpk6-7AyqQrtEzoh7f-57" value="" style="verticalLabelPosition=bottom;shadow=0;dashed=0;align=center;html=1;verticalAlign=top;shape=mxgraph.electrical.mosfets1.n-channel_mosfet_1;labelBackgroundColor=none;" vertex="1" parent="pgKpk6-7AyqQrtEzoh7f-40">
          <mxGeometry x="300" y="160" width="95" height="100" as="geometry" />
        </mxCell>
        <mxCell id="pgKpk6-7AyqQrtEzoh7f-58" value="" style="endArrow=none;html=1;rounded=0;entryX=0.7;entryY=1;entryDx=0;entryDy=0;entryPerimeter=0;exitX=0.7;exitY=0;exitDx=0;exitDy=0;exitPerimeter=0;labelBackgroundColor=none;fontColor=default;" edge="1" parent="pgKpk6-7AyqQrtEzoh7f-40" source="pgKpk6-7AyqQrtEzoh7f-51" target="pgKpk6-7AyqQrtEzoh7f-49">
          <mxGeometry width="50" height="50" relative="1" as="geometry">
            <mxPoint x="280" y="190" as="sourcePoint" />
            <mxPoint x="330" y="140" as="targetPoint" />
          </mxGeometry>
        </mxCell>
        <mxCell id="pgKpk6-7AyqQrtEzoh7f-59" value="" style="endArrow=none;html=1;rounded=0;exitX=0.7;exitY=0;exitDx=0;exitDy=0;exitPerimeter=0;labelBackgroundColor=none;fontColor=default;entryX=0.7;entryY=1;entryDx=0;entryDy=0;entryPerimeter=0;" edge="1" parent="pgKpk6-7AyqQrtEzoh7f-40" source="pgKpk6-7AyqQrtEzoh7f-57" target="pgKpk6-7AyqQrtEzoh7f-54">
          <mxGeometry width="50" height="50" relative="1" as="geometry">
            <mxPoint x="280" y="190" as="sourcePoint" />
            <mxPoint x="367" y="130" as="targetPoint" />
          </mxGeometry>
        </mxCell>
        <mxCell id="pgKpk6-7AyqQrtEzoh7f-60" style="edgeStyle=none;rounded=0;orthogonalLoop=1;jettySize=auto;html=1;exitX=0.7;exitY=1;exitDx=0;exitDy=0;exitPerimeter=0;entryX=0.7;entryY=0;entryDx=0;entryDy=0;entryPerimeter=0;elbow=vertical;endArrow=none;endFill=0;" edge="1" parent="pgKpk6-7AyqQrtEzoh7f-40" source="pgKpk6-7AyqQrtEzoh7f-45" target="pgKpk6-7AyqQrtEzoh7f-47">
          <mxGeometry relative="1" as="geometry" />
        </mxCell>
        <mxCell id="pgKpk6-7AyqQrtEzoh7f-61" style="edgeStyle=orthogonalEdgeStyle;rounded=0;orthogonalLoop=1;jettySize=auto;html=1;exitX=0.5;exitY=1;exitDx=0;exitDy=0;exitPerimeter=0;elbow=vertical;endArrow=oval;endFill=1;" edge="1" parent="pgKpk6-7AyqQrtEzoh7f-40" source="pgKpk6-7AyqQrtEzoh7f-43">
          <mxGeometry relative="1" as="geometry">
            <mxPoint x="226" y="150" as="targetPoint" />
            <mxPoint x="503" y="125" as="sourcePoint" />
            <Array as="points">
              <mxPoint x="460" y="190" />
              <mxPoint x="460" y="150" />
            </Array>
          </mxGeometry>
        </mxCell>
        <mxCell id="pgKpk6-7AyqQrtEzoh7f-266" value="&lt;div&gt;&lt;font style=&quot;font-size: 16px;&quot;&gt;SVM4&lt;/font&gt;&lt;/div&gt;" style="text;html=1;align=center;verticalAlign=middle;whiteSpace=wrap;rounded=0;" vertex="1" parent="pgKpk6-7AyqQrtEzoh7f-40">
          <mxGeometry x="524" width="60" height="30" as="geometry" />
        </mxCell>
        <mxCell id="pgKpk6-7AyqQrtEzoh7f-106" value="" style="group" vertex="1" connectable="0" parent="1">
          <mxGeometry x="4" y="4" width="584" height="280.14" as="geometry" />
        </mxCell>
        <mxCell id="pgKpk6-7AyqQrtEzoh7f-107" style="edgeStyle=orthogonalEdgeStyle;rounded=0;orthogonalLoop=1;jettySize=auto;html=1;exitX=0.07;exitY=0.25;exitDx=0;exitDy=0;exitPerimeter=0;elbow=vertical;endArrow=oval;endFill=1;" edge="1" parent="pgKpk6-7AyqQrtEzoh7f-106" source="pgKpk6-7AyqQrtEzoh7f-109">
          <mxGeometry relative="1" as="geometry">
            <mxPoint x="86" y="140" as="targetPoint" />
            <mxPoint x="483" y="115" as="sourcePoint" />
            <Array as="points">
              <mxPoint x="460" y="115" />
              <mxPoint x="460" y="140" />
            </Array>
          </mxGeometry>
        </mxCell>
        <mxCell id="pgKpk6-7AyqQrtEzoh7f-108" style="edgeStyle=orthogonalEdgeStyle;rounded=0;orthogonalLoop=1;jettySize=auto;html=1;exitX=0.93;exitY=0.25;exitDx=0;exitDy=0;exitPerimeter=0;elbow=vertical;endArrow=oval;endFill=1;" edge="1" parent="pgKpk6-7AyqQrtEzoh7f-106" source="pgKpk6-7AyqQrtEzoh7f-109">
          <mxGeometry relative="1" as="geometry">
            <mxPoint x="367" y="130" as="targetPoint" />
            <mxPoint x="570.0000000000002" y="115" as="sourcePoint" />
            <Array as="points">
              <mxPoint x="580" y="115" />
              <mxPoint x="580" y="70" />
              <mxPoint x="423" y="70" />
              <mxPoint x="423" y="130" />
            </Array>
          </mxGeometry>
        </mxCell>
        <mxCell id="pgKpk6-7AyqQrtEzoh7f-109" value="" style="pointerEvents=1;verticalLabelPosition=bottom;shadow=0;dashed=0;align=center;html=1;verticalAlign=top;shape=mxgraph.electrical.miscellaneous.f_m_3_conductor_5;labelBackgroundColor=none;" vertex="1" parent="pgKpk6-7AyqQrtEzoh7f-106">
          <mxGeometry x="480" y="90" width="100" height="100" as="geometry" />
        </mxCell>
        <mxCell id="pgKpk6-7AyqQrtEzoh7f-110" style="edgeStyle=none;rounded=0;orthogonalLoop=1;jettySize=auto;html=1;exitX=0.7;exitY=0;exitDx=0;exitDy=0;exitPerimeter=0;elbow=vertical;endArrow=none;endFill=0;" edge="1" parent="pgKpk6-7AyqQrtEzoh7f-106" source="pgKpk6-7AyqQrtEzoh7f-111">
          <mxGeometry relative="1" as="geometry">
            <mxPoint x="86.52380952380952" as="targetPoint" />
          </mxGeometry>
        </mxCell>
        <mxCell id="pgKpk6-7AyqQrtEzoh7f-111" value="" style="verticalLabelPosition=bottom;shadow=0;dashed=0;align=center;html=1;verticalAlign=top;shape=mxgraph.electrical.mosfets1.n-channel_mosfet_1;labelBackgroundColor=none;strokeColor=#999999;" vertex="1" parent="pgKpk6-7AyqQrtEzoh7f-106">
          <mxGeometry x="20" y="20" width="95" height="100" as="geometry" />
        </mxCell>
        <mxCell id="pgKpk6-7AyqQrtEzoh7f-112" style="edgeStyle=none;rounded=0;orthogonalLoop=1;jettySize=auto;html=1;exitX=0.7;exitY=1;exitDx=0;exitDy=0;exitPerimeter=0;elbow=vertical;endArrow=none;endFill=0;" edge="1" parent="pgKpk6-7AyqQrtEzoh7f-106" source="pgKpk6-7AyqQrtEzoh7f-113">
          <mxGeometry relative="1" as="geometry">
            <mxPoint x="86.52380952380952" y="280" as="targetPoint" />
          </mxGeometry>
        </mxCell>
        <mxCell id="pgKpk6-7AyqQrtEzoh7f-113" value="" style="verticalLabelPosition=bottom;shadow=0;dashed=0;align=center;html=1;verticalAlign=top;shape=mxgraph.electrical.mosfets1.n-channel_mosfet_1;labelBackgroundColor=none;" vertex="1" parent="pgKpk6-7AyqQrtEzoh7f-106">
          <mxGeometry x="20" y="160" width="95" height="100" as="geometry" />
        </mxCell>
        <mxCell id="pgKpk6-7AyqQrtEzoh7f-114" style="edgeStyle=none;rounded=0;orthogonalLoop=1;jettySize=auto;html=1;exitX=0.7;exitY=0;exitDx=0;exitDy=0;exitPerimeter=0;elbow=vertical;endArrow=none;endFill=0;" edge="1" parent="pgKpk6-7AyqQrtEzoh7f-106" source="pgKpk6-7AyqQrtEzoh7f-115">
          <mxGeometry relative="1" as="geometry">
            <mxPoint x="226.5238095238094" as="targetPoint" />
          </mxGeometry>
        </mxCell>
        <mxCell id="pgKpk6-7AyqQrtEzoh7f-115" value="" style="verticalLabelPosition=bottom;shadow=0;dashed=0;align=center;html=1;verticalAlign=top;shape=mxgraph.electrical.mosfets1.n-channel_mosfet_1;labelBackgroundColor=none;strokeColor=#999999;" vertex="1" parent="pgKpk6-7AyqQrtEzoh7f-106">
          <mxGeometry x="160" y="20" width="95" height="100" as="geometry" />
        </mxCell>
        <mxCell id="pgKpk6-7AyqQrtEzoh7f-116" style="edgeStyle=none;rounded=0;orthogonalLoop=1;jettySize=auto;html=1;exitX=0.7;exitY=1;exitDx=0;exitDy=0;exitPerimeter=0;elbow=vertical;endArrow=none;endFill=0;" edge="1" parent="pgKpk6-7AyqQrtEzoh7f-106" source="pgKpk6-7AyqQrtEzoh7f-117">
          <mxGeometry relative="1" as="geometry">
            <mxPoint x="226.5238095238094" y="280" as="targetPoint" />
          </mxGeometry>
        </mxCell>
        <mxCell id="pgKpk6-7AyqQrtEzoh7f-117" value="" style="verticalLabelPosition=bottom;shadow=0;dashed=0;align=center;html=1;verticalAlign=top;shape=mxgraph.electrical.mosfets1.n-channel_mosfet_1;labelBackgroundColor=none;" vertex="1" parent="pgKpk6-7AyqQrtEzoh7f-106">
          <mxGeometry x="160" y="160" width="95" height="100" as="geometry" />
        </mxCell>
        <mxCell id="pgKpk6-7AyqQrtEzoh7f-118" style="edgeStyle=none;rounded=0;orthogonalLoop=1;jettySize=auto;html=1;exitX=0.7;exitY=0;exitDx=0;exitDy=0;exitPerimeter=0;elbow=vertical;strokeWidth=4;endArrow=circle;endFill=0;" edge="1" parent="pgKpk6-7AyqQrtEzoh7f-106">
          <mxGeometry relative="1" as="geometry">
            <mxPoint as="targetPoint" />
            <mxPoint x="366.5" as="sourcePoint" />
          </mxGeometry>
        </mxCell>
        <mxCell id="pgKpk6-7AyqQrtEzoh7f-119" style="edgeStyle=none;rounded=0;orthogonalLoop=1;jettySize=auto;html=1;exitX=0.7;exitY=0;exitDx=0;exitDy=0;exitPerimeter=0;elbow=vertical;endArrow=none;endFill=0;" edge="1" parent="pgKpk6-7AyqQrtEzoh7f-106" source="pgKpk6-7AyqQrtEzoh7f-120">
          <mxGeometry relative="1" as="geometry">
            <mxPoint x="366.5238095238094" as="targetPoint" />
          </mxGeometry>
        </mxCell>
        <mxCell id="pgKpk6-7AyqQrtEzoh7f-120" value="" style="verticalLabelPosition=bottom;shadow=0;dashed=0;align=center;html=1;verticalAlign=top;shape=mxgraph.electrical.mosfets1.n-channel_mosfet_1;labelBackgroundColor=none;strokeColor=#999999;" vertex="1" parent="pgKpk6-7AyqQrtEzoh7f-106">
          <mxGeometry x="300" y="20" width="95" height="100" as="geometry" />
        </mxCell>
        <mxCell id="pgKpk6-7AyqQrtEzoh7f-121" style="edgeStyle=none;rounded=0;orthogonalLoop=1;jettySize=auto;html=1;exitX=0.7;exitY=1;exitDx=0;exitDy=0;exitPerimeter=0;elbow=vertical;strokeWidth=4;endArrow=circle;endFill=0;" edge="1" parent="pgKpk6-7AyqQrtEzoh7f-106">
          <mxGeometry relative="1" as="geometry">
            <mxPoint y="279.99714285714276" as="targetPoint" />
            <mxPoint x="366.5" y="280.14" as="sourcePoint" />
          </mxGeometry>
        </mxCell>
        <mxCell id="pgKpk6-7AyqQrtEzoh7f-122" style="edgeStyle=none;rounded=0;orthogonalLoop=1;jettySize=auto;html=1;exitX=0.7;exitY=1;exitDx=0;exitDy=0;exitPerimeter=0;elbow=vertical;endArrow=none;endFill=0;" edge="1" parent="pgKpk6-7AyqQrtEzoh7f-106" source="pgKpk6-7AyqQrtEzoh7f-123">
          <mxGeometry relative="1" as="geometry">
            <mxPoint x="366.5238095238094" y="280" as="targetPoint" />
          </mxGeometry>
        </mxCell>
        <mxCell id="pgKpk6-7AyqQrtEzoh7f-123" value="" style="verticalLabelPosition=bottom;shadow=0;dashed=0;align=center;html=1;verticalAlign=top;shape=mxgraph.electrical.mosfets1.n-channel_mosfet_1;labelBackgroundColor=none;" vertex="1" parent="pgKpk6-7AyqQrtEzoh7f-106">
          <mxGeometry x="300" y="160" width="95" height="100" as="geometry" />
        </mxCell>
        <mxCell id="pgKpk6-7AyqQrtEzoh7f-124" value="" style="endArrow=none;html=1;rounded=0;entryX=0.7;entryY=1;entryDx=0;entryDy=0;entryPerimeter=0;exitX=0.7;exitY=0;exitDx=0;exitDy=0;exitPerimeter=0;labelBackgroundColor=none;fontColor=default;" edge="1" parent="pgKpk6-7AyqQrtEzoh7f-106" source="pgKpk6-7AyqQrtEzoh7f-117" target="pgKpk6-7AyqQrtEzoh7f-115">
          <mxGeometry width="50" height="50" relative="1" as="geometry">
            <mxPoint x="280" y="190" as="sourcePoint" />
            <mxPoint x="330" y="140" as="targetPoint" />
          </mxGeometry>
        </mxCell>
        <mxCell id="pgKpk6-7AyqQrtEzoh7f-125" value="" style="endArrow=none;html=1;rounded=0;exitX=0.7;exitY=0;exitDx=0;exitDy=0;exitPerimeter=0;labelBackgroundColor=none;fontColor=default;entryX=0.7;entryY=1;entryDx=0;entryDy=0;entryPerimeter=0;" edge="1" parent="pgKpk6-7AyqQrtEzoh7f-106" source="pgKpk6-7AyqQrtEzoh7f-123" target="pgKpk6-7AyqQrtEzoh7f-120">
          <mxGeometry width="50" height="50" relative="1" as="geometry">
            <mxPoint x="280" y="190" as="sourcePoint" />
            <mxPoint x="367" y="130" as="targetPoint" />
          </mxGeometry>
        </mxCell>
        <mxCell id="pgKpk6-7AyqQrtEzoh7f-126" style="edgeStyle=none;rounded=0;orthogonalLoop=1;jettySize=auto;html=1;exitX=0.7;exitY=1;exitDx=0;exitDy=0;exitPerimeter=0;entryX=0.7;entryY=0;entryDx=0;entryDy=0;entryPerimeter=0;elbow=vertical;endArrow=none;endFill=0;" edge="1" parent="pgKpk6-7AyqQrtEzoh7f-106" source="pgKpk6-7AyqQrtEzoh7f-111" target="pgKpk6-7AyqQrtEzoh7f-113">
          <mxGeometry relative="1" as="geometry" />
        </mxCell>
        <mxCell id="pgKpk6-7AyqQrtEzoh7f-127" style="edgeStyle=orthogonalEdgeStyle;rounded=0;orthogonalLoop=1;jettySize=auto;html=1;exitX=0.5;exitY=1;exitDx=0;exitDy=0;exitPerimeter=0;elbow=vertical;endArrow=oval;endFill=1;" edge="1" parent="pgKpk6-7AyqQrtEzoh7f-106" source="pgKpk6-7AyqQrtEzoh7f-109">
          <mxGeometry relative="1" as="geometry">
            <mxPoint x="226" y="150" as="targetPoint" />
            <mxPoint x="503" y="125" as="sourcePoint" />
            <Array as="points">
              <mxPoint x="460" y="190" />
              <mxPoint x="460" y="150" />
            </Array>
          </mxGeometry>
        </mxCell>
        <mxCell id="pgKpk6-7AyqQrtEzoh7f-262" value="&lt;font style=&quot;font-size: 16px;&quot;&gt;SVM0&lt;/font&gt;" style="text;html=1;align=center;verticalAlign=middle;whiteSpace=wrap;rounded=0;" vertex="1" parent="pgKpk6-7AyqQrtEzoh7f-106">
          <mxGeometry x="520" y="4" width="60" height="30" as="geometry" />
        </mxCell>
        <mxCell id="pgKpk6-7AyqQrtEzoh7f-128" value="" style="group" vertex="1" connectable="0" parent="1">
          <mxGeometry x="700" y="339" width="584" height="280.14" as="geometry" />
        </mxCell>
        <mxCell id="pgKpk6-7AyqQrtEzoh7f-129" style="edgeStyle=orthogonalEdgeStyle;rounded=0;orthogonalLoop=1;jettySize=auto;html=1;exitX=0.07;exitY=0.25;exitDx=0;exitDy=0;exitPerimeter=0;elbow=vertical;endArrow=oval;endFill=1;" edge="1" parent="pgKpk6-7AyqQrtEzoh7f-128" source="pgKpk6-7AyqQrtEzoh7f-131">
          <mxGeometry relative="1" as="geometry">
            <mxPoint x="86" y="140" as="targetPoint" />
            <mxPoint x="483" y="115" as="sourcePoint" />
            <Array as="points">
              <mxPoint x="460" y="115" />
              <mxPoint x="460" y="140" />
            </Array>
          </mxGeometry>
        </mxCell>
        <mxCell id="pgKpk6-7AyqQrtEzoh7f-130" style="edgeStyle=orthogonalEdgeStyle;rounded=0;orthogonalLoop=1;jettySize=auto;html=1;exitX=0.93;exitY=0.25;exitDx=0;exitDy=0;exitPerimeter=0;elbow=vertical;endArrow=oval;endFill=1;" edge="1" parent="pgKpk6-7AyqQrtEzoh7f-128" source="pgKpk6-7AyqQrtEzoh7f-131">
          <mxGeometry relative="1" as="geometry">
            <mxPoint x="367" y="130" as="targetPoint" />
            <mxPoint x="570.0000000000002" y="115" as="sourcePoint" />
            <Array as="points">
              <mxPoint x="580" y="115" />
              <mxPoint x="580" y="70" />
              <mxPoint x="423" y="70" />
              <mxPoint x="423" y="130" />
            </Array>
          </mxGeometry>
        </mxCell>
        <mxCell id="pgKpk6-7AyqQrtEzoh7f-131" value="" style="pointerEvents=1;verticalLabelPosition=bottom;shadow=0;dashed=0;align=center;html=1;verticalAlign=top;shape=mxgraph.electrical.miscellaneous.f_m_3_conductor_5;labelBackgroundColor=none;" vertex="1" parent="pgKpk6-7AyqQrtEzoh7f-128">
          <mxGeometry x="480" y="90" width="100" height="100" as="geometry" />
        </mxCell>
        <mxCell id="pgKpk6-7AyqQrtEzoh7f-132" style="edgeStyle=none;rounded=0;orthogonalLoop=1;jettySize=auto;html=1;exitX=0.7;exitY=0;exitDx=0;exitDy=0;exitPerimeter=0;elbow=vertical;endArrow=none;endFill=0;" edge="1" parent="pgKpk6-7AyqQrtEzoh7f-128" source="pgKpk6-7AyqQrtEzoh7f-133">
          <mxGeometry relative="1" as="geometry">
            <mxPoint x="86.52380952380952" as="targetPoint" />
          </mxGeometry>
        </mxCell>
        <mxCell id="pgKpk6-7AyqQrtEzoh7f-133" value="" style="verticalLabelPosition=bottom;shadow=0;dashed=0;align=center;html=1;verticalAlign=top;shape=mxgraph.electrical.mosfets1.n-channel_mosfet_1;labelBackgroundColor=none;" vertex="1" parent="pgKpk6-7AyqQrtEzoh7f-128">
          <mxGeometry x="20" y="20" width="95" height="100" as="geometry" />
        </mxCell>
        <mxCell id="pgKpk6-7AyqQrtEzoh7f-134" style="edgeStyle=none;rounded=0;orthogonalLoop=1;jettySize=auto;html=1;exitX=0.7;exitY=1;exitDx=0;exitDy=0;exitPerimeter=0;elbow=vertical;endArrow=none;endFill=0;" edge="1" parent="pgKpk6-7AyqQrtEzoh7f-128" source="pgKpk6-7AyqQrtEzoh7f-135">
          <mxGeometry relative="1" as="geometry">
            <mxPoint x="86.52380952380952" y="280" as="targetPoint" />
          </mxGeometry>
        </mxCell>
        <mxCell id="pgKpk6-7AyqQrtEzoh7f-135" value="" style="verticalLabelPosition=bottom;shadow=0;dashed=0;align=center;html=1;verticalAlign=top;shape=mxgraph.electrical.mosfets1.n-channel_mosfet_1;labelBackgroundColor=none;strokeColor=#999999;" vertex="1" parent="pgKpk6-7AyqQrtEzoh7f-128">
          <mxGeometry x="20" y="160" width="95" height="100" as="geometry" />
        </mxCell>
        <mxCell id="pgKpk6-7AyqQrtEzoh7f-136" style="edgeStyle=none;rounded=0;orthogonalLoop=1;jettySize=auto;html=1;exitX=0.7;exitY=0;exitDx=0;exitDy=0;exitPerimeter=0;elbow=vertical;endArrow=none;endFill=0;" edge="1" parent="pgKpk6-7AyqQrtEzoh7f-128" source="pgKpk6-7AyqQrtEzoh7f-137">
          <mxGeometry relative="1" as="geometry">
            <mxPoint x="226.5238095238094" as="targetPoint" />
          </mxGeometry>
        </mxCell>
        <mxCell id="pgKpk6-7AyqQrtEzoh7f-137" value="" style="verticalLabelPosition=bottom;shadow=0;dashed=0;align=center;html=1;verticalAlign=top;shape=mxgraph.electrical.mosfets1.n-channel_mosfet_1;labelBackgroundColor=none;strokeColor=#999999;" vertex="1" parent="pgKpk6-7AyqQrtEzoh7f-128">
          <mxGeometry x="160" y="20" width="95" height="100" as="geometry" />
        </mxCell>
        <mxCell id="pgKpk6-7AyqQrtEzoh7f-138" style="edgeStyle=none;rounded=0;orthogonalLoop=1;jettySize=auto;html=1;exitX=0.7;exitY=1;exitDx=0;exitDy=0;exitPerimeter=0;elbow=vertical;endArrow=none;endFill=0;" edge="1" parent="pgKpk6-7AyqQrtEzoh7f-128" source="pgKpk6-7AyqQrtEzoh7f-139">
          <mxGeometry relative="1" as="geometry">
            <mxPoint x="226.5238095238094" y="280" as="targetPoint" />
          </mxGeometry>
        </mxCell>
        <mxCell id="pgKpk6-7AyqQrtEzoh7f-139" value="" style="verticalLabelPosition=bottom;shadow=0;dashed=0;align=center;html=1;verticalAlign=top;shape=mxgraph.electrical.mosfets1.n-channel_mosfet_1;labelBackgroundColor=none;" vertex="1" parent="pgKpk6-7AyqQrtEzoh7f-128">
          <mxGeometry x="160" y="160" width="95" height="100" as="geometry" />
        </mxCell>
        <mxCell id="pgKpk6-7AyqQrtEzoh7f-140" style="edgeStyle=none;rounded=0;orthogonalLoop=1;jettySize=auto;html=1;exitX=0.7;exitY=0;exitDx=0;exitDy=0;exitPerimeter=0;elbow=vertical;strokeWidth=4;endArrow=circle;endFill=0;" edge="1" parent="pgKpk6-7AyqQrtEzoh7f-128">
          <mxGeometry relative="1" as="geometry">
            <mxPoint as="targetPoint" />
            <mxPoint x="366.5" as="sourcePoint" />
          </mxGeometry>
        </mxCell>
        <mxCell id="pgKpk6-7AyqQrtEzoh7f-141" style="edgeStyle=none;rounded=0;orthogonalLoop=1;jettySize=auto;html=1;exitX=0.7;exitY=0;exitDx=0;exitDy=0;exitPerimeter=0;elbow=vertical;endArrow=none;endFill=0;" edge="1" parent="pgKpk6-7AyqQrtEzoh7f-128" source="pgKpk6-7AyqQrtEzoh7f-142">
          <mxGeometry relative="1" as="geometry">
            <mxPoint x="366.5238095238094" as="targetPoint" />
          </mxGeometry>
        </mxCell>
        <mxCell id="pgKpk6-7AyqQrtEzoh7f-142" value="" style="verticalLabelPosition=bottom;shadow=0;dashed=0;align=center;html=1;verticalAlign=top;shape=mxgraph.electrical.mosfets1.n-channel_mosfet_1;labelBackgroundColor=none;" vertex="1" parent="pgKpk6-7AyqQrtEzoh7f-128">
          <mxGeometry x="300" y="20" width="95" height="100" as="geometry" />
        </mxCell>
        <mxCell id="pgKpk6-7AyqQrtEzoh7f-143" style="edgeStyle=none;rounded=0;orthogonalLoop=1;jettySize=auto;html=1;exitX=0.7;exitY=1;exitDx=0;exitDy=0;exitPerimeter=0;elbow=vertical;strokeWidth=4;endArrow=circle;endFill=0;" edge="1" parent="pgKpk6-7AyqQrtEzoh7f-128">
          <mxGeometry relative="1" as="geometry">
            <mxPoint y="279.99714285714276" as="targetPoint" />
            <mxPoint x="366.5" y="280.14" as="sourcePoint" />
          </mxGeometry>
        </mxCell>
        <mxCell id="pgKpk6-7AyqQrtEzoh7f-144" style="edgeStyle=none;rounded=0;orthogonalLoop=1;jettySize=auto;html=1;exitX=0.7;exitY=1;exitDx=0;exitDy=0;exitPerimeter=0;elbow=vertical;endArrow=none;endFill=0;" edge="1" parent="pgKpk6-7AyqQrtEzoh7f-128" source="pgKpk6-7AyqQrtEzoh7f-145">
          <mxGeometry relative="1" as="geometry">
            <mxPoint x="366.5238095238094" y="280" as="targetPoint" />
          </mxGeometry>
        </mxCell>
        <mxCell id="pgKpk6-7AyqQrtEzoh7f-145" value="" style="verticalLabelPosition=bottom;shadow=0;dashed=0;align=center;html=1;verticalAlign=top;shape=mxgraph.electrical.mosfets1.n-channel_mosfet_1;labelBackgroundColor=none;strokeColor=#999999;" vertex="1" parent="pgKpk6-7AyqQrtEzoh7f-128">
          <mxGeometry x="300" y="160" width="95" height="100" as="geometry" />
        </mxCell>
        <mxCell id="pgKpk6-7AyqQrtEzoh7f-146" value="" style="endArrow=none;html=1;rounded=0;entryX=0.7;entryY=1;entryDx=0;entryDy=0;entryPerimeter=0;exitX=0.7;exitY=0;exitDx=0;exitDy=0;exitPerimeter=0;labelBackgroundColor=none;fontColor=default;" edge="1" parent="pgKpk6-7AyqQrtEzoh7f-128" source="pgKpk6-7AyqQrtEzoh7f-139" target="pgKpk6-7AyqQrtEzoh7f-137">
          <mxGeometry width="50" height="50" relative="1" as="geometry">
            <mxPoint x="280" y="190" as="sourcePoint" />
            <mxPoint x="330" y="140" as="targetPoint" />
          </mxGeometry>
        </mxCell>
        <mxCell id="pgKpk6-7AyqQrtEzoh7f-147" value="" style="endArrow=none;html=1;rounded=0;exitX=0.7;exitY=0;exitDx=0;exitDy=0;exitPerimeter=0;labelBackgroundColor=none;fontColor=default;entryX=0.7;entryY=1;entryDx=0;entryDy=0;entryPerimeter=0;" edge="1" parent="pgKpk6-7AyqQrtEzoh7f-128" source="pgKpk6-7AyqQrtEzoh7f-145" target="pgKpk6-7AyqQrtEzoh7f-142">
          <mxGeometry width="50" height="50" relative="1" as="geometry">
            <mxPoint x="280" y="190" as="sourcePoint" />
            <mxPoint x="367" y="130" as="targetPoint" />
          </mxGeometry>
        </mxCell>
        <mxCell id="pgKpk6-7AyqQrtEzoh7f-148" style="edgeStyle=none;rounded=0;orthogonalLoop=1;jettySize=auto;html=1;exitX=0.7;exitY=1;exitDx=0;exitDy=0;exitPerimeter=0;entryX=0.7;entryY=0;entryDx=0;entryDy=0;entryPerimeter=0;elbow=vertical;endArrow=none;endFill=0;" edge="1" parent="pgKpk6-7AyqQrtEzoh7f-128" source="pgKpk6-7AyqQrtEzoh7f-133" target="pgKpk6-7AyqQrtEzoh7f-135">
          <mxGeometry relative="1" as="geometry" />
        </mxCell>
        <mxCell id="pgKpk6-7AyqQrtEzoh7f-149" style="edgeStyle=orthogonalEdgeStyle;rounded=0;orthogonalLoop=1;jettySize=auto;html=1;exitX=0.5;exitY=1;exitDx=0;exitDy=0;exitPerimeter=0;elbow=vertical;endArrow=oval;endFill=1;" edge="1" parent="pgKpk6-7AyqQrtEzoh7f-128" source="pgKpk6-7AyqQrtEzoh7f-131">
          <mxGeometry relative="1" as="geometry">
            <mxPoint x="226" y="150" as="targetPoint" />
            <mxPoint x="503" y="125" as="sourcePoint" />
            <Array as="points">
              <mxPoint x="460" y="190" />
              <mxPoint x="460" y="150" />
            </Array>
          </mxGeometry>
        </mxCell>
        <mxCell id="pgKpk6-7AyqQrtEzoh7f-267" value="&lt;div&gt;&lt;font style=&quot;font-size: 16px;&quot;&gt;SVM5&lt;/font&gt;&lt;/div&gt;" style="text;html=1;align=center;verticalAlign=middle;whiteSpace=wrap;rounded=0;" vertex="1" parent="pgKpk6-7AyqQrtEzoh7f-128">
          <mxGeometry x="524" width="60" height="30" as="geometry" />
        </mxCell>
        <mxCell id="pgKpk6-7AyqQrtEzoh7f-173" value="" style="group" vertex="1" connectable="0" parent="1">
          <mxGeometry x="700" y="677" width="580" height="280.14" as="geometry" />
        </mxCell>
        <mxCell id="pgKpk6-7AyqQrtEzoh7f-174" style="edgeStyle=orthogonalEdgeStyle;rounded=0;orthogonalLoop=1;jettySize=auto;html=1;exitX=0.07;exitY=0.25;exitDx=0;exitDy=0;exitPerimeter=0;elbow=vertical;endArrow=oval;endFill=1;" edge="1" parent="pgKpk6-7AyqQrtEzoh7f-173" source="pgKpk6-7AyqQrtEzoh7f-176">
          <mxGeometry relative="1" as="geometry">
            <mxPoint x="86" y="140" as="targetPoint" />
            <mxPoint x="483" y="115" as="sourcePoint" />
            <Array as="points">
              <mxPoint x="460" y="115" />
              <mxPoint x="460" y="140" />
            </Array>
          </mxGeometry>
        </mxCell>
        <mxCell id="pgKpk6-7AyqQrtEzoh7f-175" style="edgeStyle=orthogonalEdgeStyle;rounded=0;orthogonalLoop=1;jettySize=auto;html=1;exitX=0.93;exitY=0.25;exitDx=0;exitDy=0;exitPerimeter=0;elbow=vertical;endArrow=oval;endFill=1;" edge="1" parent="pgKpk6-7AyqQrtEzoh7f-173" source="pgKpk6-7AyqQrtEzoh7f-176">
          <mxGeometry relative="1" as="geometry">
            <mxPoint x="367" y="130" as="targetPoint" />
            <mxPoint x="570.0000000000002" y="115" as="sourcePoint" />
            <Array as="points">
              <mxPoint x="580" y="115" />
              <mxPoint x="580" y="70" />
              <mxPoint x="423" y="70" />
              <mxPoint x="423" y="130" />
            </Array>
          </mxGeometry>
        </mxCell>
        <mxCell id="pgKpk6-7AyqQrtEzoh7f-176" value="" style="pointerEvents=1;verticalLabelPosition=bottom;shadow=0;dashed=0;align=center;html=1;verticalAlign=top;shape=mxgraph.electrical.miscellaneous.f_m_3_conductor_5;labelBackgroundColor=none;" vertex="1" parent="pgKpk6-7AyqQrtEzoh7f-173">
          <mxGeometry x="480" y="90" width="100" height="100" as="geometry" />
        </mxCell>
        <mxCell id="pgKpk6-7AyqQrtEzoh7f-177" style="edgeStyle=none;rounded=0;orthogonalLoop=1;jettySize=auto;html=1;exitX=0.7;exitY=0;exitDx=0;exitDy=0;exitPerimeter=0;elbow=vertical;endArrow=none;endFill=0;" edge="1" parent="pgKpk6-7AyqQrtEzoh7f-173" source="pgKpk6-7AyqQrtEzoh7f-178">
          <mxGeometry relative="1" as="geometry">
            <mxPoint x="86.52380952380952" as="targetPoint" />
          </mxGeometry>
        </mxCell>
        <mxCell id="pgKpk6-7AyqQrtEzoh7f-178" value="" style="verticalLabelPosition=bottom;shadow=0;dashed=0;align=center;html=1;verticalAlign=top;shape=mxgraph.electrical.mosfets1.n-channel_mosfet_1;labelBackgroundColor=none;" vertex="1" parent="pgKpk6-7AyqQrtEzoh7f-173">
          <mxGeometry x="20" y="20" width="95" height="100" as="geometry" />
        </mxCell>
        <mxCell id="pgKpk6-7AyqQrtEzoh7f-179" style="edgeStyle=none;rounded=0;orthogonalLoop=1;jettySize=auto;html=1;exitX=0.7;exitY=1;exitDx=0;exitDy=0;exitPerimeter=0;elbow=vertical;endArrow=none;endFill=0;" edge="1" parent="pgKpk6-7AyqQrtEzoh7f-173" source="pgKpk6-7AyqQrtEzoh7f-180">
          <mxGeometry relative="1" as="geometry">
            <mxPoint x="86.52380952380952" y="280" as="targetPoint" />
          </mxGeometry>
        </mxCell>
        <mxCell id="pgKpk6-7AyqQrtEzoh7f-180" value="" style="verticalLabelPosition=bottom;shadow=0;dashed=0;align=center;html=1;verticalAlign=top;shape=mxgraph.electrical.mosfets1.n-channel_mosfet_1;labelBackgroundColor=none;strokeColor=#999999;" vertex="1" parent="pgKpk6-7AyqQrtEzoh7f-173">
          <mxGeometry x="20" y="160" width="95" height="100" as="geometry" />
        </mxCell>
        <mxCell id="pgKpk6-7AyqQrtEzoh7f-181" style="edgeStyle=none;rounded=0;orthogonalLoop=1;jettySize=auto;html=1;exitX=0.7;exitY=0;exitDx=0;exitDy=0;exitPerimeter=0;elbow=vertical;endArrow=none;endFill=0;" edge="1" parent="pgKpk6-7AyqQrtEzoh7f-173" source="pgKpk6-7AyqQrtEzoh7f-182">
          <mxGeometry relative="1" as="geometry">
            <mxPoint x="226.5238095238094" as="targetPoint" />
          </mxGeometry>
        </mxCell>
        <mxCell id="pgKpk6-7AyqQrtEzoh7f-182" value="" style="verticalLabelPosition=bottom;shadow=0;dashed=0;align=center;html=1;verticalAlign=top;shape=mxgraph.electrical.mosfets1.n-channel_mosfet_1;labelBackgroundColor=none;" vertex="1" parent="pgKpk6-7AyqQrtEzoh7f-173">
          <mxGeometry x="160" y="20" width="95" height="100" as="geometry" />
        </mxCell>
        <mxCell id="pgKpk6-7AyqQrtEzoh7f-183" style="edgeStyle=none;rounded=0;orthogonalLoop=1;jettySize=auto;html=1;exitX=0.7;exitY=1;exitDx=0;exitDy=0;exitPerimeter=0;elbow=vertical;endArrow=none;endFill=0;" edge="1" parent="pgKpk6-7AyqQrtEzoh7f-173" source="pgKpk6-7AyqQrtEzoh7f-184">
          <mxGeometry relative="1" as="geometry">
            <mxPoint x="226.5238095238094" y="280" as="targetPoint" />
          </mxGeometry>
        </mxCell>
        <mxCell id="pgKpk6-7AyqQrtEzoh7f-184" value="" style="verticalLabelPosition=bottom;shadow=0;dashed=0;align=center;html=1;verticalAlign=top;shape=mxgraph.electrical.mosfets1.n-channel_mosfet_1;labelBackgroundColor=none;strokeColor=#999999;" vertex="1" parent="pgKpk6-7AyqQrtEzoh7f-173">
          <mxGeometry x="160" y="160" width="95" height="100" as="geometry" />
        </mxCell>
        <mxCell id="pgKpk6-7AyqQrtEzoh7f-185" style="edgeStyle=none;rounded=0;orthogonalLoop=1;jettySize=auto;html=1;exitX=0.7;exitY=0;exitDx=0;exitDy=0;exitPerimeter=0;elbow=vertical;strokeWidth=4;endArrow=circle;endFill=0;" edge="1" parent="pgKpk6-7AyqQrtEzoh7f-173">
          <mxGeometry relative="1" as="geometry">
            <mxPoint as="targetPoint" />
            <mxPoint x="366.5" as="sourcePoint" />
          </mxGeometry>
        </mxCell>
        <mxCell id="pgKpk6-7AyqQrtEzoh7f-186" style="edgeStyle=none;rounded=0;orthogonalLoop=1;jettySize=auto;html=1;exitX=0.7;exitY=0;exitDx=0;exitDy=0;exitPerimeter=0;elbow=vertical;endArrow=none;endFill=0;" edge="1" parent="pgKpk6-7AyqQrtEzoh7f-173" source="pgKpk6-7AyqQrtEzoh7f-187">
          <mxGeometry relative="1" as="geometry">
            <mxPoint x="366.5238095238094" as="targetPoint" />
          </mxGeometry>
        </mxCell>
        <mxCell id="pgKpk6-7AyqQrtEzoh7f-187" value="" style="verticalLabelPosition=bottom;shadow=0;dashed=0;align=center;html=1;verticalAlign=top;shape=mxgraph.electrical.mosfets1.n-channel_mosfet_1;labelBackgroundColor=none;strokeColor=#999999;" vertex="1" parent="pgKpk6-7AyqQrtEzoh7f-173">
          <mxGeometry x="300" y="20" width="95" height="100" as="geometry" />
        </mxCell>
        <mxCell id="pgKpk6-7AyqQrtEzoh7f-188" style="edgeStyle=none;rounded=0;orthogonalLoop=1;jettySize=auto;html=1;exitX=0.7;exitY=1;exitDx=0;exitDy=0;exitPerimeter=0;elbow=vertical;strokeWidth=4;endArrow=circle;endFill=0;" edge="1" parent="pgKpk6-7AyqQrtEzoh7f-173">
          <mxGeometry relative="1" as="geometry">
            <mxPoint y="279.99714285714276" as="targetPoint" />
            <mxPoint x="366.5" y="280.14" as="sourcePoint" />
          </mxGeometry>
        </mxCell>
        <mxCell id="pgKpk6-7AyqQrtEzoh7f-189" style="edgeStyle=none;rounded=0;orthogonalLoop=1;jettySize=auto;html=1;exitX=0.7;exitY=1;exitDx=0;exitDy=0;exitPerimeter=0;elbow=vertical;endArrow=none;endFill=0;" edge="1" parent="pgKpk6-7AyqQrtEzoh7f-173" source="pgKpk6-7AyqQrtEzoh7f-190">
          <mxGeometry relative="1" as="geometry">
            <mxPoint x="366.5238095238094" y="280" as="targetPoint" />
          </mxGeometry>
        </mxCell>
        <mxCell id="pgKpk6-7AyqQrtEzoh7f-190" value="" style="verticalLabelPosition=bottom;shadow=0;dashed=0;align=center;html=1;verticalAlign=top;shape=mxgraph.electrical.mosfets1.n-channel_mosfet_1;labelBackgroundColor=none;" vertex="1" parent="pgKpk6-7AyqQrtEzoh7f-173">
          <mxGeometry x="300" y="160" width="95" height="100" as="geometry" />
        </mxCell>
        <mxCell id="pgKpk6-7AyqQrtEzoh7f-191" value="" style="endArrow=none;html=1;rounded=0;entryX=0.7;entryY=1;entryDx=0;entryDy=0;entryPerimeter=0;exitX=0.7;exitY=0;exitDx=0;exitDy=0;exitPerimeter=0;labelBackgroundColor=none;fontColor=default;" edge="1" parent="pgKpk6-7AyqQrtEzoh7f-173" source="pgKpk6-7AyqQrtEzoh7f-184" target="pgKpk6-7AyqQrtEzoh7f-182">
          <mxGeometry width="50" height="50" relative="1" as="geometry">
            <mxPoint x="280" y="190" as="sourcePoint" />
            <mxPoint x="330" y="140" as="targetPoint" />
          </mxGeometry>
        </mxCell>
        <mxCell id="pgKpk6-7AyqQrtEzoh7f-192" value="" style="endArrow=none;html=1;rounded=0;exitX=0.7;exitY=0;exitDx=0;exitDy=0;exitPerimeter=0;labelBackgroundColor=none;fontColor=default;entryX=0.7;entryY=1;entryDx=0;entryDy=0;entryPerimeter=0;" edge="1" parent="pgKpk6-7AyqQrtEzoh7f-173" source="pgKpk6-7AyqQrtEzoh7f-190" target="pgKpk6-7AyqQrtEzoh7f-187">
          <mxGeometry width="50" height="50" relative="1" as="geometry">
            <mxPoint x="280" y="190" as="sourcePoint" />
            <mxPoint x="367" y="130" as="targetPoint" />
          </mxGeometry>
        </mxCell>
        <mxCell id="pgKpk6-7AyqQrtEzoh7f-193" style="edgeStyle=none;rounded=0;orthogonalLoop=1;jettySize=auto;html=1;exitX=0.7;exitY=1;exitDx=0;exitDy=0;exitPerimeter=0;entryX=0.7;entryY=0;entryDx=0;entryDy=0;entryPerimeter=0;elbow=vertical;endArrow=none;endFill=0;" edge="1" parent="pgKpk6-7AyqQrtEzoh7f-173" source="pgKpk6-7AyqQrtEzoh7f-178" target="pgKpk6-7AyqQrtEzoh7f-180">
          <mxGeometry relative="1" as="geometry" />
        </mxCell>
        <mxCell id="pgKpk6-7AyqQrtEzoh7f-194" style="edgeStyle=orthogonalEdgeStyle;rounded=0;orthogonalLoop=1;jettySize=auto;html=1;exitX=0.5;exitY=1;exitDx=0;exitDy=0;exitPerimeter=0;elbow=vertical;endArrow=oval;endFill=1;" edge="1" parent="pgKpk6-7AyqQrtEzoh7f-173" source="pgKpk6-7AyqQrtEzoh7f-176">
          <mxGeometry relative="1" as="geometry">
            <mxPoint x="226" y="150" as="targetPoint" />
            <mxPoint x="503" y="125" as="sourcePoint" />
            <Array as="points">
              <mxPoint x="460" y="190" />
              <mxPoint x="460" y="150" />
            </Array>
          </mxGeometry>
        </mxCell>
        <mxCell id="pgKpk6-7AyqQrtEzoh7f-268" value="&lt;div&gt;&lt;font style=&quot;font-size: 16px;&quot;&gt;SVM6&lt;/font&gt;&lt;/div&gt;" style="text;html=1;align=center;verticalAlign=middle;whiteSpace=wrap;rounded=0;" vertex="1" parent="pgKpk6-7AyqQrtEzoh7f-173">
          <mxGeometry x="520" y="-1" width="60" height="30" as="geometry" />
        </mxCell>
        <mxCell id="pgKpk6-7AyqQrtEzoh7f-196" value="" style="group" vertex="1" connectable="0" parent="1">
          <mxGeometry x="4" y="679" width="580" height="280.14" as="geometry" />
        </mxCell>
        <mxCell id="pgKpk6-7AyqQrtEzoh7f-197" style="edgeStyle=orthogonalEdgeStyle;rounded=0;orthogonalLoop=1;jettySize=auto;html=1;exitX=0.07;exitY=0.25;exitDx=0;exitDy=0;exitPerimeter=0;elbow=vertical;endArrow=oval;endFill=1;" edge="1" parent="pgKpk6-7AyqQrtEzoh7f-196" source="pgKpk6-7AyqQrtEzoh7f-199">
          <mxGeometry relative="1" as="geometry">
            <mxPoint x="86" y="140" as="targetPoint" />
            <mxPoint x="483" y="115" as="sourcePoint" />
            <Array as="points">
              <mxPoint x="460" y="115" />
              <mxPoint x="460" y="140" />
            </Array>
          </mxGeometry>
        </mxCell>
        <mxCell id="pgKpk6-7AyqQrtEzoh7f-198" style="edgeStyle=orthogonalEdgeStyle;rounded=0;orthogonalLoop=1;jettySize=auto;html=1;exitX=0.93;exitY=0.25;exitDx=0;exitDy=0;exitPerimeter=0;elbow=vertical;endArrow=oval;endFill=1;" edge="1" parent="pgKpk6-7AyqQrtEzoh7f-196" source="pgKpk6-7AyqQrtEzoh7f-199">
          <mxGeometry relative="1" as="geometry">
            <mxPoint x="367" y="130" as="targetPoint" />
            <mxPoint x="570.0000000000002" y="115" as="sourcePoint" />
            <Array as="points">
              <mxPoint x="580" y="115" />
              <mxPoint x="580" y="70" />
              <mxPoint x="423" y="70" />
              <mxPoint x="423" y="130" />
            </Array>
          </mxGeometry>
        </mxCell>
        <mxCell id="pgKpk6-7AyqQrtEzoh7f-199" value="" style="pointerEvents=1;verticalLabelPosition=bottom;shadow=0;dashed=0;align=center;html=1;verticalAlign=top;shape=mxgraph.electrical.miscellaneous.f_m_3_conductor_5;labelBackgroundColor=none;" vertex="1" parent="pgKpk6-7AyqQrtEzoh7f-196">
          <mxGeometry x="480" y="90" width="100" height="100" as="geometry" />
        </mxCell>
        <mxCell id="pgKpk6-7AyqQrtEzoh7f-200" style="edgeStyle=none;rounded=0;orthogonalLoop=1;jettySize=auto;html=1;exitX=0.7;exitY=0;exitDx=0;exitDy=0;exitPerimeter=0;elbow=vertical;endArrow=none;endFill=0;" edge="1" parent="pgKpk6-7AyqQrtEzoh7f-196" source="pgKpk6-7AyqQrtEzoh7f-201">
          <mxGeometry relative="1" as="geometry">
            <mxPoint x="86.52380952380952" as="targetPoint" />
          </mxGeometry>
        </mxCell>
        <mxCell id="pgKpk6-7AyqQrtEzoh7f-201" value="" style="verticalLabelPosition=bottom;shadow=0;dashed=0;align=center;html=1;verticalAlign=top;shape=mxgraph.electrical.mosfets1.n-channel_mosfet_1;labelBackgroundColor=none;strokeColor=#999999;" vertex="1" parent="pgKpk6-7AyqQrtEzoh7f-196">
          <mxGeometry x="20" y="20" width="95" height="100" as="geometry" />
        </mxCell>
        <mxCell id="pgKpk6-7AyqQrtEzoh7f-202" style="edgeStyle=none;rounded=0;orthogonalLoop=1;jettySize=auto;html=1;exitX=0.7;exitY=1;exitDx=0;exitDy=0;exitPerimeter=0;elbow=vertical;endArrow=none;endFill=0;" edge="1" parent="pgKpk6-7AyqQrtEzoh7f-196" source="pgKpk6-7AyqQrtEzoh7f-203">
          <mxGeometry relative="1" as="geometry">
            <mxPoint x="86.52380952380952" y="280" as="targetPoint" />
          </mxGeometry>
        </mxCell>
        <mxCell id="pgKpk6-7AyqQrtEzoh7f-203" value="" style="verticalLabelPosition=bottom;shadow=0;dashed=0;align=center;html=1;verticalAlign=top;shape=mxgraph.electrical.mosfets1.n-channel_mosfet_1;labelBackgroundColor=none;" vertex="1" parent="pgKpk6-7AyqQrtEzoh7f-196">
          <mxGeometry x="20" y="160" width="95" height="100" as="geometry" />
        </mxCell>
        <mxCell id="pgKpk6-7AyqQrtEzoh7f-204" style="edgeStyle=none;rounded=0;orthogonalLoop=1;jettySize=auto;html=1;exitX=0.7;exitY=0;exitDx=0;exitDy=0;exitPerimeter=0;elbow=vertical;endArrow=none;endFill=0;" edge="1" parent="pgKpk6-7AyqQrtEzoh7f-196" source="pgKpk6-7AyqQrtEzoh7f-205">
          <mxGeometry relative="1" as="geometry">
            <mxPoint x="226.5238095238094" as="targetPoint" />
          </mxGeometry>
        </mxCell>
        <mxCell id="pgKpk6-7AyqQrtEzoh7f-205" value="" style="verticalLabelPosition=bottom;shadow=0;dashed=0;align=center;html=1;verticalAlign=top;shape=mxgraph.electrical.mosfets1.n-channel_mosfet_1;labelBackgroundColor=none;" vertex="1" parent="pgKpk6-7AyqQrtEzoh7f-196">
          <mxGeometry x="160" y="20" width="95" height="100" as="geometry" />
        </mxCell>
        <mxCell id="pgKpk6-7AyqQrtEzoh7f-206" style="edgeStyle=none;rounded=0;orthogonalLoop=1;jettySize=auto;html=1;exitX=0.7;exitY=1;exitDx=0;exitDy=0;exitPerimeter=0;elbow=vertical;endArrow=none;endFill=0;" edge="1" parent="pgKpk6-7AyqQrtEzoh7f-196" source="pgKpk6-7AyqQrtEzoh7f-207">
          <mxGeometry relative="1" as="geometry">
            <mxPoint x="226.5238095238094" y="280" as="targetPoint" />
          </mxGeometry>
        </mxCell>
        <mxCell id="pgKpk6-7AyqQrtEzoh7f-207" value="" style="verticalLabelPosition=bottom;shadow=0;dashed=0;align=center;html=1;verticalAlign=top;shape=mxgraph.electrical.mosfets1.n-channel_mosfet_1;labelBackgroundColor=none;strokeColor=#999999;" vertex="1" parent="pgKpk6-7AyqQrtEzoh7f-196">
          <mxGeometry x="160" y="160" width="95" height="100" as="geometry" />
        </mxCell>
        <mxCell id="pgKpk6-7AyqQrtEzoh7f-208" style="edgeStyle=none;rounded=0;orthogonalLoop=1;jettySize=auto;html=1;exitX=0.7;exitY=0;exitDx=0;exitDy=0;exitPerimeter=0;elbow=vertical;strokeWidth=4;endArrow=circle;endFill=0;" edge="1" parent="pgKpk6-7AyqQrtEzoh7f-196">
          <mxGeometry relative="1" as="geometry">
            <mxPoint as="targetPoint" />
            <mxPoint x="366.5" as="sourcePoint" />
          </mxGeometry>
        </mxCell>
        <mxCell id="pgKpk6-7AyqQrtEzoh7f-209" style="edgeStyle=none;rounded=0;orthogonalLoop=1;jettySize=auto;html=1;exitX=0.7;exitY=0;exitDx=0;exitDy=0;exitPerimeter=0;elbow=vertical;endArrow=none;endFill=0;" edge="1" parent="pgKpk6-7AyqQrtEzoh7f-196" source="pgKpk6-7AyqQrtEzoh7f-210">
          <mxGeometry relative="1" as="geometry">
            <mxPoint x="366.5238095238094" as="targetPoint" />
          </mxGeometry>
        </mxCell>
        <mxCell id="pgKpk6-7AyqQrtEzoh7f-210" value="" style="verticalLabelPosition=bottom;shadow=0;dashed=0;align=center;html=1;verticalAlign=top;shape=mxgraph.electrical.mosfets1.n-channel_mosfet_1;labelBackgroundColor=none;strokeColor=#999999;" vertex="1" parent="pgKpk6-7AyqQrtEzoh7f-196">
          <mxGeometry x="300" y="20" width="95" height="100" as="geometry" />
        </mxCell>
        <mxCell id="pgKpk6-7AyqQrtEzoh7f-211" style="edgeStyle=none;rounded=0;orthogonalLoop=1;jettySize=auto;html=1;exitX=0.7;exitY=1;exitDx=0;exitDy=0;exitPerimeter=0;elbow=vertical;strokeWidth=4;endArrow=circle;endFill=0;" edge="1" parent="pgKpk6-7AyqQrtEzoh7f-196">
          <mxGeometry relative="1" as="geometry">
            <mxPoint y="279.99714285714276" as="targetPoint" />
            <mxPoint x="366.5" y="280.14" as="sourcePoint" />
          </mxGeometry>
        </mxCell>
        <mxCell id="pgKpk6-7AyqQrtEzoh7f-212" style="edgeStyle=none;rounded=0;orthogonalLoop=1;jettySize=auto;html=1;exitX=0.7;exitY=1;exitDx=0;exitDy=0;exitPerimeter=0;elbow=vertical;endArrow=none;endFill=0;" edge="1" parent="pgKpk6-7AyqQrtEzoh7f-196" source="pgKpk6-7AyqQrtEzoh7f-213">
          <mxGeometry relative="1" as="geometry">
            <mxPoint x="366.5238095238094" y="280" as="targetPoint" />
          </mxGeometry>
        </mxCell>
        <mxCell id="pgKpk6-7AyqQrtEzoh7f-213" value="" style="verticalLabelPosition=bottom;shadow=0;dashed=0;align=center;html=1;verticalAlign=top;shape=mxgraph.electrical.mosfets1.n-channel_mosfet_1;labelBackgroundColor=none;" vertex="1" parent="pgKpk6-7AyqQrtEzoh7f-196">
          <mxGeometry x="300" y="160" width="95" height="100" as="geometry" />
        </mxCell>
        <mxCell id="pgKpk6-7AyqQrtEzoh7f-214" value="" style="endArrow=none;html=1;rounded=0;entryX=0.7;entryY=1;entryDx=0;entryDy=0;entryPerimeter=0;exitX=0.7;exitY=0;exitDx=0;exitDy=0;exitPerimeter=0;labelBackgroundColor=none;fontColor=default;" edge="1" parent="pgKpk6-7AyqQrtEzoh7f-196" source="pgKpk6-7AyqQrtEzoh7f-207" target="pgKpk6-7AyqQrtEzoh7f-205">
          <mxGeometry width="50" height="50" relative="1" as="geometry">
            <mxPoint x="280" y="190" as="sourcePoint" />
            <mxPoint x="330" y="140" as="targetPoint" />
          </mxGeometry>
        </mxCell>
        <mxCell id="pgKpk6-7AyqQrtEzoh7f-215" value="" style="endArrow=none;html=1;rounded=0;exitX=0.7;exitY=0;exitDx=0;exitDy=0;exitPerimeter=0;labelBackgroundColor=none;fontColor=default;entryX=0.7;entryY=1;entryDx=0;entryDy=0;entryPerimeter=0;" edge="1" parent="pgKpk6-7AyqQrtEzoh7f-196" source="pgKpk6-7AyqQrtEzoh7f-213" target="pgKpk6-7AyqQrtEzoh7f-210">
          <mxGeometry width="50" height="50" relative="1" as="geometry">
            <mxPoint x="280" y="190" as="sourcePoint" />
            <mxPoint x="367" y="130" as="targetPoint" />
          </mxGeometry>
        </mxCell>
        <mxCell id="pgKpk6-7AyqQrtEzoh7f-216" style="edgeStyle=none;rounded=0;orthogonalLoop=1;jettySize=auto;html=1;exitX=0.7;exitY=1;exitDx=0;exitDy=0;exitPerimeter=0;entryX=0.7;entryY=0;entryDx=0;entryDy=0;entryPerimeter=0;elbow=vertical;endArrow=none;endFill=0;" edge="1" parent="pgKpk6-7AyqQrtEzoh7f-196" source="pgKpk6-7AyqQrtEzoh7f-201" target="pgKpk6-7AyqQrtEzoh7f-203">
          <mxGeometry relative="1" as="geometry" />
        </mxCell>
        <mxCell id="pgKpk6-7AyqQrtEzoh7f-217" style="edgeStyle=orthogonalEdgeStyle;rounded=0;orthogonalLoop=1;jettySize=auto;html=1;exitX=0.5;exitY=1;exitDx=0;exitDy=0;exitPerimeter=0;elbow=vertical;endArrow=oval;endFill=1;" edge="1" parent="pgKpk6-7AyqQrtEzoh7f-196" source="pgKpk6-7AyqQrtEzoh7f-199">
          <mxGeometry relative="1" as="geometry">
            <mxPoint x="226" y="150" as="targetPoint" />
            <mxPoint x="503" y="125" as="sourcePoint" />
            <Array as="points">
              <mxPoint x="460" y="190" />
              <mxPoint x="460" y="150" />
            </Array>
          </mxGeometry>
        </mxCell>
        <mxCell id="pgKpk6-7AyqQrtEzoh7f-264" value="&lt;font style=&quot;font-size: 16px;&quot;&gt;SVM2&lt;/font&gt;" style="text;html=1;align=center;verticalAlign=middle;whiteSpace=wrap;rounded=0;" vertex="1" parent="pgKpk6-7AyqQrtEzoh7f-196">
          <mxGeometry x="520" y="1" width="60" height="30" as="geometry" />
        </mxCell>
        <mxCell id="pgKpk6-7AyqQrtEzoh7f-218" value="" style="group" vertex="1" connectable="0" parent="1">
          <mxGeometry x="708" y="1015.9999999999999" width="584" height="280.14" as="geometry" />
        </mxCell>
        <mxCell id="pgKpk6-7AyqQrtEzoh7f-219" style="edgeStyle=orthogonalEdgeStyle;rounded=0;orthogonalLoop=1;jettySize=auto;html=1;exitX=0.07;exitY=0.25;exitDx=0;exitDy=0;exitPerimeter=0;elbow=vertical;endArrow=oval;endFill=1;" edge="1" parent="pgKpk6-7AyqQrtEzoh7f-218" source="pgKpk6-7AyqQrtEzoh7f-221">
          <mxGeometry relative="1" as="geometry">
            <mxPoint x="86" y="140" as="targetPoint" />
            <mxPoint x="483" y="115" as="sourcePoint" />
            <Array as="points">
              <mxPoint x="460" y="115" />
              <mxPoint x="460" y="140" />
            </Array>
          </mxGeometry>
        </mxCell>
        <mxCell id="pgKpk6-7AyqQrtEzoh7f-220" style="edgeStyle=orthogonalEdgeStyle;rounded=0;orthogonalLoop=1;jettySize=auto;html=1;exitX=0.93;exitY=0.25;exitDx=0;exitDy=0;exitPerimeter=0;elbow=vertical;endArrow=oval;endFill=1;" edge="1" parent="pgKpk6-7AyqQrtEzoh7f-218" source="pgKpk6-7AyqQrtEzoh7f-221">
          <mxGeometry relative="1" as="geometry">
            <mxPoint x="367" y="130" as="targetPoint" />
            <mxPoint x="570.0000000000002" y="115" as="sourcePoint" />
            <Array as="points">
              <mxPoint x="580" y="115" />
              <mxPoint x="580" y="70" />
              <mxPoint x="423" y="70" />
              <mxPoint x="423" y="130" />
            </Array>
          </mxGeometry>
        </mxCell>
        <mxCell id="pgKpk6-7AyqQrtEzoh7f-221" value="" style="pointerEvents=1;verticalLabelPosition=bottom;shadow=0;dashed=0;align=center;html=1;verticalAlign=top;shape=mxgraph.electrical.miscellaneous.f_m_3_conductor_5;labelBackgroundColor=none;" vertex="1" parent="pgKpk6-7AyqQrtEzoh7f-218">
          <mxGeometry x="480" y="90" width="100" height="100" as="geometry" />
        </mxCell>
        <mxCell id="pgKpk6-7AyqQrtEzoh7f-222" style="edgeStyle=none;rounded=0;orthogonalLoop=1;jettySize=auto;html=1;exitX=0.7;exitY=0;exitDx=0;exitDy=0;exitPerimeter=0;elbow=vertical;endArrow=none;endFill=0;" edge="1" parent="pgKpk6-7AyqQrtEzoh7f-218" source="pgKpk6-7AyqQrtEzoh7f-223">
          <mxGeometry relative="1" as="geometry">
            <mxPoint x="86.52380952380952" as="targetPoint" />
          </mxGeometry>
        </mxCell>
        <mxCell id="pgKpk6-7AyqQrtEzoh7f-223" value="" style="verticalLabelPosition=bottom;shadow=0;dashed=0;align=center;html=1;verticalAlign=top;shape=mxgraph.electrical.mosfets1.n-channel_mosfet_1;labelBackgroundColor=none;" vertex="1" parent="pgKpk6-7AyqQrtEzoh7f-218">
          <mxGeometry x="20" y="20" width="95" height="100" as="geometry" />
        </mxCell>
        <mxCell id="pgKpk6-7AyqQrtEzoh7f-224" style="edgeStyle=none;rounded=0;orthogonalLoop=1;jettySize=auto;html=1;exitX=0.7;exitY=1;exitDx=0;exitDy=0;exitPerimeter=0;elbow=vertical;endArrow=none;endFill=0;" edge="1" parent="pgKpk6-7AyqQrtEzoh7f-218" source="pgKpk6-7AyqQrtEzoh7f-225">
          <mxGeometry relative="1" as="geometry">
            <mxPoint x="86.52380952380952" y="280" as="targetPoint" />
          </mxGeometry>
        </mxCell>
        <mxCell id="pgKpk6-7AyqQrtEzoh7f-225" value="" style="verticalLabelPosition=bottom;shadow=0;dashed=0;align=center;html=1;verticalAlign=top;shape=mxgraph.electrical.mosfets1.n-channel_mosfet_1;labelBackgroundColor=none;strokeColor=#999999;" vertex="1" parent="pgKpk6-7AyqQrtEzoh7f-218">
          <mxGeometry x="20" y="160" width="95" height="100" as="geometry" />
        </mxCell>
        <mxCell id="pgKpk6-7AyqQrtEzoh7f-226" style="edgeStyle=none;rounded=0;orthogonalLoop=1;jettySize=auto;html=1;exitX=0.7;exitY=0;exitDx=0;exitDy=0;exitPerimeter=0;elbow=vertical;endArrow=none;endFill=0;" edge="1" parent="pgKpk6-7AyqQrtEzoh7f-218" source="pgKpk6-7AyqQrtEzoh7f-227">
          <mxGeometry relative="1" as="geometry">
            <mxPoint x="226.5238095238094" as="targetPoint" />
          </mxGeometry>
        </mxCell>
        <mxCell id="pgKpk6-7AyqQrtEzoh7f-227" value="" style="verticalLabelPosition=bottom;shadow=0;dashed=0;align=center;html=1;verticalAlign=top;shape=mxgraph.electrical.mosfets1.n-channel_mosfet_1;labelBackgroundColor=none;" vertex="1" parent="pgKpk6-7AyqQrtEzoh7f-218">
          <mxGeometry x="160" y="20" width="95" height="100" as="geometry" />
        </mxCell>
        <mxCell id="pgKpk6-7AyqQrtEzoh7f-228" style="edgeStyle=none;rounded=0;orthogonalLoop=1;jettySize=auto;html=1;exitX=0.7;exitY=1;exitDx=0;exitDy=0;exitPerimeter=0;elbow=vertical;endArrow=none;endFill=0;" edge="1" parent="pgKpk6-7AyqQrtEzoh7f-218" source="pgKpk6-7AyqQrtEzoh7f-229">
          <mxGeometry relative="1" as="geometry">
            <mxPoint x="226.5238095238094" y="280" as="targetPoint" />
          </mxGeometry>
        </mxCell>
        <mxCell id="pgKpk6-7AyqQrtEzoh7f-229" value="" style="verticalLabelPosition=bottom;shadow=0;dashed=0;align=center;html=1;verticalAlign=top;shape=mxgraph.electrical.mosfets1.n-channel_mosfet_1;labelBackgroundColor=none;strokeColor=#999999;" vertex="1" parent="pgKpk6-7AyqQrtEzoh7f-218">
          <mxGeometry x="160" y="160" width="95" height="100" as="geometry" />
        </mxCell>
        <mxCell id="pgKpk6-7AyqQrtEzoh7f-230" style="edgeStyle=none;rounded=0;orthogonalLoop=1;jettySize=auto;html=1;exitX=0.7;exitY=0;exitDx=0;exitDy=0;exitPerimeter=0;elbow=vertical;strokeWidth=4;endArrow=circle;endFill=0;" edge="1" parent="pgKpk6-7AyqQrtEzoh7f-218">
          <mxGeometry relative="1" as="geometry">
            <mxPoint as="targetPoint" />
            <mxPoint x="366.5" as="sourcePoint" />
          </mxGeometry>
        </mxCell>
        <mxCell id="pgKpk6-7AyqQrtEzoh7f-231" style="edgeStyle=none;rounded=0;orthogonalLoop=1;jettySize=auto;html=1;exitX=0.7;exitY=0;exitDx=0;exitDy=0;exitPerimeter=0;elbow=vertical;endArrow=none;endFill=0;" edge="1" parent="pgKpk6-7AyqQrtEzoh7f-218" source="pgKpk6-7AyqQrtEzoh7f-232">
          <mxGeometry relative="1" as="geometry">
            <mxPoint x="366.5238095238094" as="targetPoint" />
          </mxGeometry>
        </mxCell>
        <mxCell id="pgKpk6-7AyqQrtEzoh7f-232" value="" style="verticalLabelPosition=bottom;shadow=0;dashed=0;align=center;html=1;verticalAlign=top;shape=mxgraph.electrical.mosfets1.n-channel_mosfet_1;labelBackgroundColor=none;" vertex="1" parent="pgKpk6-7AyqQrtEzoh7f-218">
          <mxGeometry x="300" y="20" width="95" height="100" as="geometry" />
        </mxCell>
        <mxCell id="pgKpk6-7AyqQrtEzoh7f-233" style="edgeStyle=none;rounded=0;orthogonalLoop=1;jettySize=auto;html=1;exitX=0.7;exitY=1;exitDx=0;exitDy=0;exitPerimeter=0;elbow=vertical;strokeWidth=4;endArrow=circle;endFill=0;" edge="1" parent="pgKpk6-7AyqQrtEzoh7f-218">
          <mxGeometry relative="1" as="geometry">
            <mxPoint y="279.99714285714276" as="targetPoint" />
            <mxPoint x="366.5" y="280.14" as="sourcePoint" />
          </mxGeometry>
        </mxCell>
        <mxCell id="pgKpk6-7AyqQrtEzoh7f-234" style="edgeStyle=none;rounded=0;orthogonalLoop=1;jettySize=auto;html=1;exitX=0.7;exitY=1;exitDx=0;exitDy=0;exitPerimeter=0;elbow=vertical;endArrow=none;endFill=0;" edge="1" parent="pgKpk6-7AyqQrtEzoh7f-218" source="pgKpk6-7AyqQrtEzoh7f-235">
          <mxGeometry relative="1" as="geometry">
            <mxPoint x="366.5238095238094" y="280" as="targetPoint" />
          </mxGeometry>
        </mxCell>
        <mxCell id="pgKpk6-7AyqQrtEzoh7f-235" value="" style="verticalLabelPosition=bottom;shadow=0;dashed=0;align=center;html=1;verticalAlign=top;shape=mxgraph.electrical.mosfets1.n-channel_mosfet_1;labelBackgroundColor=none;strokeColor=#999999;" vertex="1" parent="pgKpk6-7AyqQrtEzoh7f-218">
          <mxGeometry x="300" y="160" width="95" height="100" as="geometry" />
        </mxCell>
        <mxCell id="pgKpk6-7AyqQrtEzoh7f-236" value="" style="endArrow=none;html=1;rounded=0;entryX=0.7;entryY=1;entryDx=0;entryDy=0;entryPerimeter=0;exitX=0.7;exitY=0;exitDx=0;exitDy=0;exitPerimeter=0;labelBackgroundColor=none;fontColor=default;" edge="1" parent="pgKpk6-7AyqQrtEzoh7f-218" source="pgKpk6-7AyqQrtEzoh7f-229" target="pgKpk6-7AyqQrtEzoh7f-227">
          <mxGeometry width="50" height="50" relative="1" as="geometry">
            <mxPoint x="280" y="190" as="sourcePoint" />
            <mxPoint x="330" y="140" as="targetPoint" />
          </mxGeometry>
        </mxCell>
        <mxCell id="pgKpk6-7AyqQrtEzoh7f-237" value="" style="endArrow=none;html=1;rounded=0;exitX=0.7;exitY=0;exitDx=0;exitDy=0;exitPerimeter=0;labelBackgroundColor=none;fontColor=default;entryX=0.7;entryY=1;entryDx=0;entryDy=0;entryPerimeter=0;" edge="1" parent="pgKpk6-7AyqQrtEzoh7f-218" source="pgKpk6-7AyqQrtEzoh7f-235" target="pgKpk6-7AyqQrtEzoh7f-232">
          <mxGeometry width="50" height="50" relative="1" as="geometry">
            <mxPoint x="280" y="190" as="sourcePoint" />
            <mxPoint x="367" y="130" as="targetPoint" />
          </mxGeometry>
        </mxCell>
        <mxCell id="pgKpk6-7AyqQrtEzoh7f-238" style="edgeStyle=none;rounded=0;orthogonalLoop=1;jettySize=auto;html=1;exitX=0.7;exitY=1;exitDx=0;exitDy=0;exitPerimeter=0;entryX=0.7;entryY=0;entryDx=0;entryDy=0;entryPerimeter=0;elbow=vertical;endArrow=none;endFill=0;" edge="1" parent="pgKpk6-7AyqQrtEzoh7f-218" source="pgKpk6-7AyqQrtEzoh7f-223" target="pgKpk6-7AyqQrtEzoh7f-225">
          <mxGeometry relative="1" as="geometry" />
        </mxCell>
        <mxCell id="pgKpk6-7AyqQrtEzoh7f-239" style="edgeStyle=orthogonalEdgeStyle;rounded=0;orthogonalLoop=1;jettySize=auto;html=1;exitX=0.5;exitY=1;exitDx=0;exitDy=0;exitPerimeter=0;elbow=vertical;endArrow=oval;endFill=1;" edge="1" parent="pgKpk6-7AyqQrtEzoh7f-218" source="pgKpk6-7AyqQrtEzoh7f-221">
          <mxGeometry relative="1" as="geometry">
            <mxPoint x="226" y="150" as="targetPoint" />
            <mxPoint x="503" y="125" as="sourcePoint" />
            <Array as="points">
              <mxPoint x="460" y="190" />
              <mxPoint x="460" y="150" />
            </Array>
          </mxGeometry>
        </mxCell>
        <mxCell id="pgKpk6-7AyqQrtEzoh7f-269" value="&lt;div&gt;&lt;font style=&quot;font-size: 16px;&quot;&gt;SVM7&lt;/font&gt;&lt;/div&gt;" style="text;html=1;align=center;verticalAlign=middle;whiteSpace=wrap;rounded=0;" vertex="1" parent="pgKpk6-7AyqQrtEzoh7f-218">
          <mxGeometry x="524" y="-3.9999999999998863" width="60" height="30" as="geometry" />
        </mxCell>
        <mxCell id="pgKpk6-7AyqQrtEzoh7f-240" value="" style="group" vertex="1" connectable="0" parent="1">
          <mxGeometry x="4" y="1015.9999999999999" width="584" height="280.14" as="geometry" />
        </mxCell>
        <mxCell id="pgKpk6-7AyqQrtEzoh7f-241" style="edgeStyle=orthogonalEdgeStyle;rounded=0;orthogonalLoop=1;jettySize=auto;html=1;exitX=0.07;exitY=0.25;exitDx=0;exitDy=0;exitPerimeter=0;elbow=vertical;endArrow=oval;endFill=1;" edge="1" parent="pgKpk6-7AyqQrtEzoh7f-240" source="pgKpk6-7AyqQrtEzoh7f-243">
          <mxGeometry relative="1" as="geometry">
            <mxPoint x="86" y="140" as="targetPoint" />
            <mxPoint x="483" y="115" as="sourcePoint" />
            <Array as="points">
              <mxPoint x="460" y="115" />
              <mxPoint x="460" y="140" />
            </Array>
          </mxGeometry>
        </mxCell>
        <mxCell id="pgKpk6-7AyqQrtEzoh7f-242" style="edgeStyle=orthogonalEdgeStyle;rounded=0;orthogonalLoop=1;jettySize=auto;html=1;exitX=0.93;exitY=0.25;exitDx=0;exitDy=0;exitPerimeter=0;elbow=vertical;endArrow=oval;endFill=1;" edge="1" parent="pgKpk6-7AyqQrtEzoh7f-240" source="pgKpk6-7AyqQrtEzoh7f-243">
          <mxGeometry relative="1" as="geometry">
            <mxPoint x="367" y="130" as="targetPoint" />
            <mxPoint x="570.0000000000002" y="115" as="sourcePoint" />
            <Array as="points">
              <mxPoint x="580" y="115" />
              <mxPoint x="580" y="70" />
              <mxPoint x="423" y="70" />
              <mxPoint x="423" y="130" />
            </Array>
          </mxGeometry>
        </mxCell>
        <mxCell id="pgKpk6-7AyqQrtEzoh7f-243" value="" style="pointerEvents=1;verticalLabelPosition=bottom;shadow=0;dashed=0;align=center;html=1;verticalAlign=top;shape=mxgraph.electrical.miscellaneous.f_m_3_conductor_5;labelBackgroundColor=none;" vertex="1" parent="pgKpk6-7AyqQrtEzoh7f-240">
          <mxGeometry x="480" y="90" width="100" height="100" as="geometry" />
        </mxCell>
        <mxCell id="pgKpk6-7AyqQrtEzoh7f-244" style="edgeStyle=none;rounded=0;orthogonalLoop=1;jettySize=auto;html=1;exitX=0.7;exitY=0;exitDx=0;exitDy=0;exitPerimeter=0;elbow=vertical;endArrow=none;endFill=0;" edge="1" parent="pgKpk6-7AyqQrtEzoh7f-240" source="pgKpk6-7AyqQrtEzoh7f-245">
          <mxGeometry relative="1" as="geometry">
            <mxPoint x="86.52380952380952" as="targetPoint" />
          </mxGeometry>
        </mxCell>
        <mxCell id="pgKpk6-7AyqQrtEzoh7f-245" value="" style="verticalLabelPosition=bottom;shadow=0;dashed=0;align=center;html=1;verticalAlign=top;shape=mxgraph.electrical.mosfets1.n-channel_mosfet_1;labelBackgroundColor=none;strokeColor=#999999;" vertex="1" parent="pgKpk6-7AyqQrtEzoh7f-240">
          <mxGeometry x="20" y="20" width="95" height="100" as="geometry" />
        </mxCell>
        <mxCell id="pgKpk6-7AyqQrtEzoh7f-246" style="edgeStyle=none;rounded=0;orthogonalLoop=1;jettySize=auto;html=1;exitX=0.7;exitY=1;exitDx=0;exitDy=0;exitPerimeter=0;elbow=vertical;endArrow=none;endFill=0;" edge="1" parent="pgKpk6-7AyqQrtEzoh7f-240" source="pgKpk6-7AyqQrtEzoh7f-247">
          <mxGeometry relative="1" as="geometry">
            <mxPoint x="86.52380952380952" y="280" as="targetPoint" />
          </mxGeometry>
        </mxCell>
        <mxCell id="pgKpk6-7AyqQrtEzoh7f-247" value="" style="verticalLabelPosition=bottom;shadow=0;dashed=0;align=center;html=1;verticalAlign=top;shape=mxgraph.electrical.mosfets1.n-channel_mosfet_1;labelBackgroundColor=none;" vertex="1" parent="pgKpk6-7AyqQrtEzoh7f-240">
          <mxGeometry x="20" y="160" width="95" height="100" as="geometry" />
        </mxCell>
        <mxCell id="pgKpk6-7AyqQrtEzoh7f-248" style="edgeStyle=none;rounded=0;orthogonalLoop=1;jettySize=auto;html=1;exitX=0.7;exitY=0;exitDx=0;exitDy=0;exitPerimeter=0;elbow=vertical;endArrow=none;endFill=0;" edge="1" parent="pgKpk6-7AyqQrtEzoh7f-240" source="pgKpk6-7AyqQrtEzoh7f-249">
          <mxGeometry relative="1" as="geometry">
            <mxPoint x="226.5238095238094" as="targetPoint" />
          </mxGeometry>
        </mxCell>
        <mxCell id="pgKpk6-7AyqQrtEzoh7f-249" value="" style="verticalLabelPosition=bottom;shadow=0;dashed=0;align=center;html=1;verticalAlign=top;shape=mxgraph.electrical.mosfets1.n-channel_mosfet_1;labelBackgroundColor=none;" vertex="1" parent="pgKpk6-7AyqQrtEzoh7f-240">
          <mxGeometry x="160" y="20" width="95" height="100" as="geometry" />
        </mxCell>
        <mxCell id="pgKpk6-7AyqQrtEzoh7f-250" style="edgeStyle=none;rounded=0;orthogonalLoop=1;jettySize=auto;html=1;exitX=0.7;exitY=1;exitDx=0;exitDy=0;exitPerimeter=0;elbow=vertical;endArrow=none;endFill=0;" edge="1" parent="pgKpk6-7AyqQrtEzoh7f-240" source="pgKpk6-7AyqQrtEzoh7f-251">
          <mxGeometry relative="1" as="geometry">
            <mxPoint x="226.5238095238094" y="280" as="targetPoint" />
          </mxGeometry>
        </mxCell>
        <mxCell id="pgKpk6-7AyqQrtEzoh7f-251" value="" style="verticalLabelPosition=bottom;shadow=0;dashed=0;align=center;html=1;verticalAlign=top;shape=mxgraph.electrical.mosfets1.n-channel_mosfet_1;labelBackgroundColor=none;strokeColor=#999999;" vertex="1" parent="pgKpk6-7AyqQrtEzoh7f-240">
          <mxGeometry x="160" y="160" width="95" height="100" as="geometry" />
        </mxCell>
        <mxCell id="pgKpk6-7AyqQrtEzoh7f-252" style="edgeStyle=none;rounded=0;orthogonalLoop=1;jettySize=auto;html=1;exitX=0.7;exitY=0;exitDx=0;exitDy=0;exitPerimeter=0;elbow=vertical;strokeWidth=4;endArrow=circle;endFill=0;" edge="1" parent="pgKpk6-7AyqQrtEzoh7f-240">
          <mxGeometry relative="1" as="geometry">
            <mxPoint as="targetPoint" />
            <mxPoint x="366.5" as="sourcePoint" />
          </mxGeometry>
        </mxCell>
        <mxCell id="pgKpk6-7AyqQrtEzoh7f-253" style="edgeStyle=none;rounded=0;orthogonalLoop=1;jettySize=auto;html=1;exitX=0.7;exitY=0;exitDx=0;exitDy=0;exitPerimeter=0;elbow=vertical;endArrow=none;endFill=0;" edge="1" parent="pgKpk6-7AyqQrtEzoh7f-240" source="pgKpk6-7AyqQrtEzoh7f-254">
          <mxGeometry relative="1" as="geometry">
            <mxPoint x="366.5238095238094" as="targetPoint" />
          </mxGeometry>
        </mxCell>
        <mxCell id="pgKpk6-7AyqQrtEzoh7f-254" value="" style="verticalLabelPosition=bottom;shadow=0;dashed=0;align=center;html=1;verticalAlign=top;shape=mxgraph.electrical.mosfets1.n-channel_mosfet_1;labelBackgroundColor=none;" vertex="1" parent="pgKpk6-7AyqQrtEzoh7f-240">
          <mxGeometry x="300" y="20" width="95" height="100" as="geometry" />
        </mxCell>
        <mxCell id="pgKpk6-7AyqQrtEzoh7f-255" style="edgeStyle=none;rounded=0;orthogonalLoop=1;jettySize=auto;html=1;exitX=0.7;exitY=1;exitDx=0;exitDy=0;exitPerimeter=0;elbow=vertical;strokeWidth=4;endArrow=circle;endFill=0;" edge="1" parent="pgKpk6-7AyqQrtEzoh7f-240">
          <mxGeometry relative="1" as="geometry">
            <mxPoint y="279.99714285714276" as="targetPoint" />
            <mxPoint x="366.5" y="280.14" as="sourcePoint" />
          </mxGeometry>
        </mxCell>
        <mxCell id="pgKpk6-7AyqQrtEzoh7f-256" style="edgeStyle=none;rounded=0;orthogonalLoop=1;jettySize=auto;html=1;exitX=0.7;exitY=1;exitDx=0;exitDy=0;exitPerimeter=0;elbow=vertical;endArrow=none;endFill=0;" edge="1" parent="pgKpk6-7AyqQrtEzoh7f-240" source="pgKpk6-7AyqQrtEzoh7f-257">
          <mxGeometry relative="1" as="geometry">
            <mxPoint x="366.5238095238094" y="280" as="targetPoint" />
          </mxGeometry>
        </mxCell>
        <mxCell id="pgKpk6-7AyqQrtEzoh7f-257" value="" style="verticalLabelPosition=bottom;shadow=0;dashed=0;align=center;html=1;verticalAlign=top;shape=mxgraph.electrical.mosfets1.n-channel_mosfet_1;labelBackgroundColor=none;strokeColor=#999999;" vertex="1" parent="pgKpk6-7AyqQrtEzoh7f-240">
          <mxGeometry x="300" y="160" width="95" height="100" as="geometry" />
        </mxCell>
        <mxCell id="pgKpk6-7AyqQrtEzoh7f-258" value="" style="endArrow=none;html=1;rounded=0;entryX=0.7;entryY=1;entryDx=0;entryDy=0;entryPerimeter=0;exitX=0.7;exitY=0;exitDx=0;exitDy=0;exitPerimeter=0;labelBackgroundColor=none;fontColor=default;" edge="1" parent="pgKpk6-7AyqQrtEzoh7f-240" source="pgKpk6-7AyqQrtEzoh7f-251" target="pgKpk6-7AyqQrtEzoh7f-249">
          <mxGeometry width="50" height="50" relative="1" as="geometry">
            <mxPoint x="280" y="190" as="sourcePoint" />
            <mxPoint x="330" y="140" as="targetPoint" />
          </mxGeometry>
        </mxCell>
        <mxCell id="pgKpk6-7AyqQrtEzoh7f-259" value="" style="endArrow=none;html=1;rounded=0;exitX=0.7;exitY=0;exitDx=0;exitDy=0;exitPerimeter=0;labelBackgroundColor=none;fontColor=default;entryX=0.7;entryY=1;entryDx=0;entryDy=0;entryPerimeter=0;" edge="1" parent="pgKpk6-7AyqQrtEzoh7f-240" source="pgKpk6-7AyqQrtEzoh7f-257" target="pgKpk6-7AyqQrtEzoh7f-254">
          <mxGeometry width="50" height="50" relative="1" as="geometry">
            <mxPoint x="280" y="190" as="sourcePoint" />
            <mxPoint x="367" y="130" as="targetPoint" />
          </mxGeometry>
        </mxCell>
        <mxCell id="pgKpk6-7AyqQrtEzoh7f-260" style="edgeStyle=none;rounded=0;orthogonalLoop=1;jettySize=auto;html=1;exitX=0.7;exitY=1;exitDx=0;exitDy=0;exitPerimeter=0;entryX=0.7;entryY=0;entryDx=0;entryDy=0;entryPerimeter=0;elbow=vertical;endArrow=none;endFill=0;" edge="1" parent="pgKpk6-7AyqQrtEzoh7f-240" source="pgKpk6-7AyqQrtEzoh7f-245" target="pgKpk6-7AyqQrtEzoh7f-247">
          <mxGeometry relative="1" as="geometry" />
        </mxCell>
        <mxCell id="pgKpk6-7AyqQrtEzoh7f-261" style="edgeStyle=orthogonalEdgeStyle;rounded=0;orthogonalLoop=1;jettySize=auto;html=1;exitX=0.5;exitY=1;exitDx=0;exitDy=0;exitPerimeter=0;elbow=vertical;endArrow=oval;endFill=1;" edge="1" parent="pgKpk6-7AyqQrtEzoh7f-240" source="pgKpk6-7AyqQrtEzoh7f-243">
          <mxGeometry relative="1" as="geometry">
            <mxPoint x="226" y="150" as="targetPoint" />
            <mxPoint x="503" y="125" as="sourcePoint" />
            <Array as="points">
              <mxPoint x="460" y="190" />
              <mxPoint x="460" y="150" />
            </Array>
          </mxGeometry>
        </mxCell>
        <mxCell id="pgKpk6-7AyqQrtEzoh7f-265" value="&lt;div style=&quot;font-size: 16px;&quot;&gt;&lt;font style=&quot;font-size: 16px;&quot;&gt;SVM3&lt;/font&gt;&lt;/div&gt;" style="text;html=1;align=center;verticalAlign=middle;whiteSpace=wrap;rounded=0;" vertex="1" parent="pgKpk6-7AyqQrtEzoh7f-240">
          <mxGeometry x="524" y="1.1368683772161603e-13" width="60" height="30" as="geometry" />
        </mxCell>
      </root>
    </mxGraphModel>
  </diagram>
</mxfile>
